<svg width="25" height="24" viewBox="0 0 25 24" fill="none" xmlns="http://www.w3.org/2000/svg">
<path d="M9.75 16.1257C9.10833 16.1257 8.56597 15.9041 8.12292 15.4611C7.67986 15.018 7.45833 14.4757 7.45833 13.834C7.45833 13.1923 7.67986 12.65 8.12292 12.2069C8.56597 11.7638 9.10833 11.5423 9.75 11.5423C10.3917 11.5423 10.934 11.7638 11.3771 12.2069C11.8201 12.65 12.0417 13.1923 12.0417 13.834C12.0417 14.4757 11.8201 15.018 11.3771 15.4611C10.934 15.9041 10.3917 16.1257 9.75 16.1257ZM6.08333 21.1673C5.57917 21.1673 5.14757 20.9878 4.78854 20.6288C4.42951 20.2697 4.25 19.8382 4.25 19.334V6.50065C4.25 5.99648 4.42951 5.56489 4.78854 5.20586C5.14757 4.84683 5.57917 4.66732 6.08333 4.66732H7V2.83398H8.83333V4.66732H16.1667V2.83398H18V4.66732H18.9167C19.4208 4.66732 19.8524 4.84683 20.2115 5.20586C20.5705 5.56489 20.75 5.99648 20.75 6.50065V19.334C20.75 19.8382 20.5705 20.2697 20.2115 20.6288C19.8524 20.9878 19.4208 21.1673 18.9167 21.1673H6.08333ZM6.08333 19.334H18.9167V10.1673H6.08333V19.334Z" fill="#D7D7D7"/>
</svg>
