<svg width="25" height="24" viewBox="0 0 25 24" fill="none" xmlns="http://www.w3.org/2000/svg">
<path d="M12.4999 21.1673C12.286 21.1673 12.1027 21.1062 11.9499 20.984C11.7971 20.8618 11.6826 20.7013 11.6062 20.5027C11.3159 19.6472 10.9492 18.8451 10.5062 18.0965C10.0784 17.3479 9.47492 16.4694 8.69575 15.4611C7.91659 14.4527 7.28256 13.4902 6.79367 12.5736C6.32006 11.6569 6.08325 10.5493 6.08325 9.25065C6.08325 7.46315 6.702 5.95065 7.9395 4.71315C9.19228 3.46037 10.7124 2.83398 12.4999 2.83398C14.2874 2.83398 15.7999 3.46037 17.0374 4.71315C18.2902 5.95065 18.9166 7.46315 18.9166 9.25065C18.9166 10.6409 18.6492 11.802 18.1145 12.734C17.5951 13.6507 16.9916 14.5597 16.3041 15.4611C15.4791 16.5611 14.8527 17.4777 14.4249 18.2111C14.0124 18.9291 13.6687 19.693 13.3937 20.5027C13.3173 20.7166 13.1951 20.8847 13.027 21.0069C12.8742 21.1138 12.6985 21.1673 12.4999 21.1673ZM12.4999 11.5423C13.1416 11.5423 13.6839 11.3208 14.127 10.8777C14.5701 10.4347 14.7916 9.89232 14.7916 9.25065C14.7916 8.60898 14.5701 8.06662 14.127 7.62357C13.6839 7.18051 13.1416 6.95898 12.4999 6.95898C11.8583 6.95898 11.3159 7.18051 10.8728 7.62357C10.4298 8.06662 10.2083 8.60898 10.2083 9.25065C10.2083 9.89232 10.4298 10.4347 10.8728 10.8777C11.3159 11.3208 11.8583 11.5423 12.4999 11.5423Z" fill="#D7D7D7"/>
</svg>
