<svg width="25" height="24" viewBox="0 0 25 24" fill="none" xmlns="http://www.w3.org/2000/svg">
<mask id="mask0_566_6659" style="mask-type:alpha" maskUnits="userSpaceOnUse" x="0" y="0" width="25" height="24">
<rect x="0.5" width="24" height="24" fill="#D9D9D9"/>
</mask>
<g mask="url(#mask0_566_6659)">
<path d="M5.5 21C4.95 21 4.47917 20.8042 4.0875 20.4125C3.69583 20.0208 3.5 19.55 3.5 19V5C3.5 4.45 3.69583 3.97917 4.0875 3.5875C4.47917 3.19583 4.95 3 5.5 3H19.5C20.05 3 20.5208 3.19583 20.9125 3.5875C21.3042 3.97917 21.5 4.45 21.5 5V19C21.5 19.55 21.3042 20.0208 20.9125 20.4125C20.5208 20.8042 20.05 21 19.5 21H5.5ZM6.5 17H18.5L14.75 12L11.75 16L9.5 13L6.5 17ZM9 10C9.41667 10 9.77083 9.85417 10.0625 9.5625C10.3542 9.27083 10.5 8.91667 10.5 8.5C10.5 8.08333 10.3542 7.72917 10.0625 7.4375C9.77083 7.14583 9.41667 7 9 7C8.58333 7 8.22917 7.14583 7.9375 7.4375C7.64583 7.72917 7.5 8.08333 7.5 8.5C7.5 8.91667 7.64583 9.27083 7.9375 9.5625C8.22917 9.85417 8.58333 10 9 10Z" fill="#D7D7D7"/>
</g>
</svg>
