<svg width="20" height="20" viewBox="0 0 20 20" fill="none" xmlns="http://www.w3.org/2000/svg">
<path d="M6.99999 14.166L9.99999 11.166L13 14.166L14.1667 12.9993L11.1667 9.99935L14.1667 6.99935L13 5.83268L9.99999 8.83268L6.99999 5.83268L5.83332 6.99935L8.83332 9.99935L5.83332 12.9993L6.99999 14.166ZM9.99999 18.3327C8.84721 18.3327 7.76388 18.1139 6.74999 17.6764C5.7361 17.2389 4.85416 16.6452 4.10416 15.8952C3.35416 15.1452 2.76041 14.2632 2.32291 13.2493C1.88541 12.2355 1.66666 11.1521 1.66666 9.99935C1.66666 8.84657 1.88541 7.76324 2.32291 6.74935C2.76041 5.73546 3.35416 4.85352 4.10416 4.10352C4.85416 3.35352 5.7361 2.75977 6.74999 2.32227C7.76388 1.88477 8.84721 1.66602 9.99999 1.66602C11.1528 1.66602 12.2361 1.88477 13.25 2.32227C14.2639 2.75977 15.1458 3.35352 15.8958 4.10352C16.6458 4.85352 17.2396 5.73546 17.6771 6.74935C18.1146 7.76324 18.3333 8.84657 18.3333 9.99935C18.3333 11.1521 18.1146 12.2355 17.6771 13.2493C17.2396 14.2632 16.6458 15.1452 15.8958 15.8952C15.1458 16.6452 14.2639 17.2389 13.25 17.6764C12.2361 18.1139 11.1528 18.3327 9.99999 18.3327ZM9.99999 16.666C11.8611 16.666 13.4375 16.0202 14.7292 14.7285C16.0208 13.4368 16.6667 11.8605 16.6667 9.99935C16.6667 8.13824 16.0208 6.56185 14.7292 5.27018C13.4375 3.97852 11.8611 3.33268 9.99999 3.33268C8.13888 3.33268 6.56249 3.97852 5.27082 5.27018C3.97916 6.56185 3.33332 8.13824 3.33332 9.99935C3.33332 11.8605 3.97916 13.4368 5.27082 14.7285C6.56249 16.0202 8.13888 16.666 9.99999 16.666Z" fill="#B3D8FF"/>
</svg>
