<svg width="433" height="455" viewBox="0 0 433 455" fill="none" xmlns="http://www.w3.org/2000/svg">
<path d="M181.288 224.133C167.952 227.706 154.86 222.094 133.258 141.474C111.656 60.8537 119.922 51.5736 133.258 48C146.595 44.4265 159.952 47.9128 181.554 128.533C203.157 209.153 194.625 220.559 181.288 224.133Z" fill="#F0DD9E"/>
<path d="M174.688 200.875C180.77 199.246 184.01 191.618 168.001 131.871C151.992 72.1238 145.093 66.0985 139.012 67.728C132.93 69.3575 129.968 78.0249 145.978 137.772C161.987 197.52 168.607 202.505 174.688 200.875Z" fill="#ECB6A5"/>
<path d="M246.148 224.133C259.485 227.706 272.576 222.094 294.178 141.474C315.781 60.8537 307.515 51.5736 294.178 48C280.842 44.4265 267.484 47.9128 245.882 128.533C224.28 209.153 232.812 220.559 246.148 224.133Z" fill="#F0DD9E"/>
<path d="M252.38 200.875C246.298 199.246 243.058 191.618 259.067 131.871C275.077 72.1238 281.975 66.0985 288.057 67.728C294.138 69.3575 297.1 78.0249 281.09 137.772C265.081 197.52 258.461 202.505 252.38 200.875Z" fill="#F0BAAA"/>
<path d="M252.38 200.875C246.299 199.246 243.058 191.618 259.068 131.871C275.077 72.1238 281.975 66.0985 288.057 67.728C294.138 69.3575 297.1 78.0249 281.091 137.772C265.081 197.52 258.462 202.505 252.38 200.875Z" fill="#ECB6A5"/>
<path d="M375 330.323C375 411.134 303.366 436 215 436C126.634 436 55 411.134 55 330.323C55 249.511 126.634 184 215 184C303.366 184 375 249.511 375 330.323Z" fill="#FCF7E6"/>
<path fill-rule="evenodd" clip-rule="evenodd" d="M333.813 410.044C359.414 393.54 375 368.018 375 330.323C375 249.511 303.366 184 215 184C126.634 184 55 249.511 55 330.323C55 367.005 69.7599 392.16 94.1447 408.694C115.024 379.941 160.616 360 213.5 360C267.208 360 313.395 380.567 333.813 410.044Z" fill="#F0DD9E"/>
<circle cx="109.5" cy="337.5" r="54.5" fill="url(#paint0_radial_30_159)"/>
<circle cx="320.5" cy="337.5" r="54.5" fill="url(#paint1_radial_30_159)"/>
<path d="M193.5 325.5C197.167 331.5 206.3 339.9 213.5 325.5" stroke="#4F3523" stroke-width="4" stroke-linecap="round"/>
<path d="M233 325.5C229.333 331.5 220.2 339.9 213 325.5" stroke="#4F3523" stroke-width="4" stroke-linecap="round"/>
<rect x="138" y="271" width="19" height="45" rx="9.5" fill="#4F3523"/>
<rect x="270" y="271" width="19" height="45" rx="9.5" fill="#4F3523"/>
<path fill-rule="evenodd" clip-rule="evenodd" d="M349 335.348C349 338.966 351.424 342.21 355.014 342.658C356.83 342.884 358.679 343 360.556 343C385.102 343 405 323.077 405 298.5C405 273.923 385.102 254 360.556 254C358.679 254 356.83 254.116 355.014 254.342C351.424 254.79 349 258.034 349 261.652V335.348Z" fill="#424242"/>
<path fill-rule="evenodd" clip-rule="evenodd" d="M358.783 322.451C360.467 321.502 362.602 322.099 363.55 323.783C366.638 329.268 368.606 336.231 367.823 343.684C367.033 351.2 363.468 358.959 355.916 365.956C340.994 379.781 310.59 390.594 254.588 392C252.655 392.048 251.05 390.521 251.001 388.588C250.953 386.656 252.48 385.05 254.412 385.002C310.01 383.607 338.19 372.837 351.159 360.821C357.553 354.897 360.261 348.67 360.861 342.952C361.469 337.17 359.946 331.65 357.45 327.218C356.502 325.533 357.099 323.399 358.783 322.451Z" fill="#919191"/>
<path d="M258 388.207C258 394.034 251.508 397 243.5 397C235.492 397 229 394.034 229 388.207C229 382.379 235.492 380 243.5 380C251.508 380 258 382.379 258 388.207Z" fill="#595959"/>
<path d="M101.959 314.757C102.304 313.128 104.372 312.608 105.446 313.882L111.728 321.337C112.139 321.825 112.759 322.087 113.395 322.043L125.546 321.2C127.246 321.082 128.305 323.008 127.295 324.381L120.752 333.274C120.293 333.897 120.236 334.73 120.604 335.411L126.221 345.791C127.023 347.273 125.745 349.022 124.09 348.708L113.33 346.67C112.731 346.556 112.114 346.722 111.652 347.119L103.177 354.416C101.932 355.488 99.9963 354.684 99.8773 353.045L99.0104 341.104C98.9583 340.386 98.5243 339.751 97.8741 339.442L88.1776 334.834C86.6695 334.117 86.6517 331.977 88.1477 331.236L98.8186 325.946C99.3669 325.674 99.7605 325.166 99.887 324.567L101.959 314.757Z" fill="#FFE6F3"/>
<path fill-rule="evenodd" clip-rule="evenodd" d="M300.476 352.449C299.659 352.009 299.943 350.809 300.851 350.612C308.683 348.913 315.29 343.057 317.487 334.856C319.684 326.655 316.891 318.28 310.958 312.893C310.27 312.269 310.624 311.087 311.552 311.115C313.266 311.165 315.001 311.414 316.731 311.877C328.605 315.059 335.682 327.152 332.537 338.889C329.392 350.625 317.217 357.56 305.343 354.378C303.613 353.915 301.986 353.262 300.476 352.449Z" fill="#FFF6DE"/>
<defs>
<radialGradient id="paint0_radial_30_159" cx="0" cy="0" r="1" gradientUnits="userSpaceOnUse" gradientTransform="translate(109.5 337.5) rotate(90) scale(54.5)">
<stop offset="0.564" stop-color="#F0BAAA" stop-opacity="0.6"/>
<stop offset="1" stop-color="#F0BAAA" stop-opacity="0"/>
</radialGradient>
<radialGradient id="paint1_radial_30_159" cx="0" cy="0" r="1" gradientUnits="userSpaceOnUse" gradientTransform="translate(320.5 337.5) rotate(90) scale(54.5)">
<stop offset="0.564" stop-color="#F0BAAA" stop-opacity="0.6"/>
<stop offset="1" stop-color="#F0BAAA" stop-opacity="0"/>
</radialGradient>
</defs>
</svg>
