<svg width="20" height="20" viewBox="0 0 20 20" fill="none" xmlns="http://www.w3.org/2000/svg">
<path d="M3.3335 15.8337V14.167H5.00016V8.33366C5.00016 7.18088 5.34738 6.16005 6.04183 5.27116C6.73627 4.36838 7.63905 3.7781 8.75016 3.50032V2.91699C8.75016 2.56977 8.86822 2.2781 9.10433 2.04199C9.35433 1.79199 9.65294 1.66699 10.0002 1.66699C10.3474 1.66699 10.6391 1.79199 10.8752 2.04199C11.1252 2.2781 11.2502 2.56977 11.2502 2.91699V3.50032C12.3613 3.7781 13.2641 4.36838 13.9585 5.27116C14.6529 6.16005 15.0002 7.18088 15.0002 8.33366V14.167H16.6668V15.8337H3.3335ZM10.0002 18.3337C9.54183 18.3337 9.146 18.1739 8.81266 17.8545C8.49322 17.5212 8.3335 17.1253 8.3335 16.667H11.6668C11.6668 17.1253 11.5002 17.5212 11.1668 17.8545C10.8474 18.1739 10.4585 18.3337 10.0002 18.3337ZM6.66683 14.167H13.3335V8.33366C13.3335 7.41699 13.0071 6.63227 12.3543 5.97949C11.7016 5.32671 10.9168 5.00032 10.0002 5.00032C9.0835 5.00032 8.29877 5.32671 7.646 5.97949C6.99322 6.63227 6.66683 7.41699 6.66683 8.33366V14.167Z" fill="white"/>
</svg>
