<svg width="20" height="20" viewBox="0 0 20 20" fill="none" xmlns="http://www.w3.org/2000/svg">
<mask id="mask0_779_7004" style="mask-type:alpha" maskUnits="userSpaceOnUse" x="0" y="0" width="20" height="20">
<rect width="20" height="20" fill="#D9D9D9"/>
</mask>
<g mask="url(#mask0_779_7004)">
<path d="M10.0002 18.3337C9.54183 18.3337 9.14947 18.1705 8.82308 17.8441C8.49669 17.5177 8.3335 17.1253 8.3335 16.667H11.6668C11.6668 17.1253 11.5036 17.5177 11.1772 17.8441C10.8509 18.1705 10.4585 18.3337 10.0002 18.3337ZM3.3335 15.8337V14.167H5.00016V8.33366C5.00016 7.18088 5.34739 6.15658 6.04183 5.26074C6.73627 4.36491 7.63905 3.7781 8.75016 3.50033V2.91699C8.75016 2.56977 8.87169 2.27463 9.11475 2.03158C9.3578 1.78852 9.65294 1.66699 10.0002 1.66699C10.3474 1.66699 10.6425 1.78852 10.8856 2.03158C11.1286 2.27463 11.2502 2.56977 11.2502 2.91699V3.18783C11.0974 3.49338 10.9863 3.80588 10.9168 4.12533C10.8474 4.44477 10.8196 4.77116 10.8335 5.10449C10.6946 5.07671 10.5592 5.05241 10.4272 5.03158C10.2953 5.01074 10.1529 5.00033 10.0002 5.00033C9.0835 5.00033 8.29877 5.32671 7.646 5.97949C6.99322 6.63227 6.66683 7.41699 6.66683 8.33366V14.167H13.3335V8.81283C13.5835 8.92394 13.8509 9.01074 14.1356 9.07324C14.4203 9.13574 14.7085 9.16699 15.0002 9.16699V14.167H16.6668V15.8337H3.3335ZM15.0002 7.50033C14.3057 7.50033 13.7154 7.25727 13.2293 6.77116C12.7432 6.28505 12.5002 5.69477 12.5002 5.00033C12.5002 4.30588 12.7432 3.7156 13.2293 3.22949C13.7154 2.74338 14.3057 2.50033 15.0002 2.50033C15.6946 2.50033 16.2849 2.74338 16.771 3.22949C17.2571 3.7156 17.5002 4.30588 17.5002 5.00033C17.5002 5.69477 17.2571 6.28505 16.771 6.77116C16.2849 7.25727 15.6946 7.50033 15.0002 7.50033Z" fill="white"/>
</g>
</svg>
