<svg width="2139" height="512" viewBox="0 0 2139 512" fill="none" xmlns="http://www.w3.org/2000/svg">
<g clip-path="url(#clip0_643_4555)">
<path fill-rule="evenodd" clip-rule="evenodd" d="M400.196 398.596C400.196 398.596 400.196 398.596 400.196 398.596C373.65 425.142 309.09 403.622 255.998 350.53L275.224 331.304C317.698 373.778 365.042 395.297 380.969 379.37C380.97 379.37 380.97 379.37 380.97 379.369L400.196 398.596ZM332.904 273.625C332.904 273.625 332.904 273.625 332.903 273.625L352.13 254.398C352.13 254.398 352.13 254.399 352.13 254.399L332.904 273.625Z" fill="#B3D8FF"/>
<path fill-rule="evenodd" clip-rule="evenodd" d="M111.8 110.2C138.347 83.6556 202.906 105.176 255.997 158.267L236.771 177.494C194.298 135.021 146.955 113.501 131.027 129.427L111.8 110.2ZM179.092 235.172C179.092 235.173 179.092 235.173 179.092 235.173L159.865 254.399C159.674 254.207 159.482 254.015 159.291 253.823L159.866 254.398L179.092 235.172Z" fill="#B3D8FF"/>
<path fill-rule="evenodd" clip-rule="evenodd" d="M399.499 181.964C383.477 219.288 351.672 264.47 308.871 307.271C228.348 387.794 139.399 429.399 110.198 400.198C80.9975 370.998 122.603 282.049 203.126 201.526C245.927 158.725 291.108 126.919 328.432 110.898L332.084 135.213C301.186 149.444 260.479 179.421 220.75 219.15C152.615 287.285 113.162 358.3 132.629 377.767C152.096 397.235 223.112 357.782 291.247 289.647C330.975 249.918 360.952 209.21 375.183 178.313L399.499 181.964Z" fill="#FAFA33"/>
<path d="M359.879 115.557C357.767 110.965 362.508 106.225 367.099 108.336L377.093 112.932C378.537 113.596 380.198 113.596 381.642 112.932L391.636 108.336C396.228 106.225 400.968 110.965 398.857 115.557L394.261 125.551C393.597 126.994 393.597 128.656 394.261 130.1L398.857 140.094C400.968 144.685 396.228 149.425 391.636 147.314L381.642 142.719C380.198 142.055 378.537 142.055 377.093 142.719L367.099 147.314C362.508 149.425 357.767 144.685 359.879 140.094L364.474 130.1C365.138 128.656 365.138 126.994 364.474 125.551L359.879 115.557Z" fill="#FAFA33"/>
<rect x="171.082" y="233.57" width="22.6585" height="31.7219" transform="rotate(-45 171.082 233.57)" fill="#001128"/>
<rect x="302.462" y="268.818" width="22.6585" height="40.7853" transform="rotate(-45 302.462 268.818)" fill="#001128"/>
<path fill-rule="evenodd" clip-rule="evenodd" d="M246.385 244.784C246.385 244.784 246.384 244.784 246.384 244.784C238.736 252.433 227.349 255.717 214.729 253.914C202.109 252.112 189.29 245.369 179.092 235.171L159.866 254.397C175.163 269.695 194.898 279.302 214.729 281.105C234.561 282.907 252.863 276.759 265.611 264.011C265.646 263.975 265.682 263.94 265.717 263.904L265.611 264.01L246.385 244.784Z" fill="#B3D8FF"/>
<path fill-rule="evenodd" clip-rule="evenodd" d="M246.385 244.786C259.133 232.038 277.436 225.889 297.266 227.692C317.097 229.495 336.832 239.102 352.13 254.399L304.064 302.465L255.998 350.531C255.901 350.435 255.805 350.338 255.709 350.241L255.998 350.53L275.225 331.304L304.064 302.465L304.064 302.464L332.904 273.625C322.706 263.426 309.887 256.684 297.267 254.881C284.647 253.079 273.26 256.363 265.612 264.012C265.612 264.012 265.612 264.012 265.612 264.012L246.385 244.786Z" fill="#B3D8FF"/>
<path fill-rule="evenodd" clip-rule="evenodd" d="M111.801 110.2C111.8 110.2 111.8 110.2 111.8 110.2C85.254 136.746 106.774 201.306 159.866 254.398L179.092 235.172C136.619 192.698 115.099 145.354 131.026 129.427C131.027 129.426 131.027 129.426 131.027 129.426L111.801 110.2Z" fill="#B3D8FF"/>
<path fill-rule="evenodd" clip-rule="evenodd" d="M400.196 398.596C426.742 372.05 405.222 307.491 352.13 254.399L332.903 273.625C375.377 316.098 396.896 363.441 380.97 379.37L400.196 398.596ZM275.224 331.305C275.224 331.304 275.224 331.304 275.224 331.304L255.998 350.531C256.16 350.693 256.323 350.855 256.486 351.017L255.999 350.53L275.224 331.305Z" fill="#B3D8FF"/>
<path d="M812.793 384.002C793.681 384.002 778.643 378.337 767.682 367.007C757.001 355.678 751.661 340.281 751.661 320.817L751.661 129.818H790.449L790.448 318.202C790.448 327.789 792.978 335.487 798.037 341.297C803.377 346.817 810.685 349.577 819.96 349.577H863.385L846.072 384.002H812.793ZM751.661 203.959V169.534H864.228L846.072 203.959H751.661Z" fill="#B3D8FF"/>
<path fill-rule="evenodd" clip-rule="evenodd" d="M941.594 368.089C956.119 377.27 972.522 381.861 990.803 381.861C1009.08 381.861 1025.49 377.27 1040.01 368.089C1048.79 362.383 1056.43 355.512 1062.92 347.476V383.774H1101.62V361.526C1101.62 361.418 1101.62 361.31 1101.62 361.202V275.889C1101.62 255.74 1096.98 237.631 1087.72 221.563C1078.7 205.495 1066.43 192.87 1050.91 183.688C1035.38 174.252 1017.85 169.533 998.316 169.533C978.782 169.533 961.127 174.252 945.35 183.688C929.824 192.87 917.428 205.495 908.162 221.563C899.146 237.631 894.639 255.74 894.639 275.889C894.639 296.037 898.771 314.146 907.035 330.214C915.549 346.027 927.069 358.652 941.594 368.089ZM1032.5 338.248C1022.48 344.369 1011.09 347.43 998.316 347.43C985.794 347.43 974.4 344.369 964.132 338.248C954.115 331.872 946.102 323.328 940.091 312.616C934.332 301.648 931.452 289.406 931.452 275.889C931.452 262.116 934.332 249.874 940.091 239.161C946.102 228.194 954.115 219.65 964.132 213.529C974.4 207.153 985.794 203.965 998.316 203.965C1011.09 203.965 1022.48 207.153 1032.5 213.529C1042.52 219.65 1050.4 228.194 1056.16 239.161C1061.92 249.874 1064.8 262.116 1064.8 275.889C1064.8 289.406 1061.92 301.648 1056.16 312.616C1050.4 323.328 1042.52 331.872 1032.5 338.248Z" fill="#B3D8FF"/>
<path d="M1140.2 384.003V228.498C1140.2 210.134 1145.53 195.822 1156.2 185.56C1167.16 175.028 1182.18 169.762 1201.27 169.762H1245.5L1232.79 201.763H1208.44C1199.17 201.763 1191.87 204.328 1186.53 209.459C1181.48 214.59 1178.95 221.747 1178.95 230.928V384.003H1140.2Z" fill="#B3D8FF"/>
<path fill-rule="evenodd" clip-rule="evenodd" d="M1434.32 364.031C1415.34 380.672 1398.36 384.003 1371.06 384.003C1311.57 384.003 1267.29 336.043 1267.29 276.882C1267.29 217.721 1311.57 169.762 1371.06 169.762C1399.8 169.762 1418.64 175.133 1437.96 193.365L1422.64 221.633C1409.11 209.14 1390.98 201.501 1371.06 201.501C1329.2 201.501 1302.87 235.25 1302.87 276.882C1302.87 318.514 1329.2 352.263 1371.06 352.263C1389.54 352.263 1406.48 345.687 1419.64 334.76L1434.32 364.031Z" fill="#E9E996"/>
<path fill-rule="evenodd" clip-rule="evenodd" d="M1517.59 368.317C1532.12 377.499 1548.52 382.09 1566.8 382.09C1585.08 382.09 1601.49 377.499 1616.01 368.317C1624.79 362.611 1632.43 355.74 1638.93 347.703V384.003H1677.62V361.531C1677.62 361.497 1677.62 361.464 1677.62 361.431V276.117C1677.62 255.968 1672.98 237.86 1663.72 221.792C1654.7 205.724 1642.43 193.099 1626.91 183.917C1611.38 174.48 1593.85 169.762 1574.32 169.762C1554.78 169.762 1537.13 174.48 1521.35 183.917C1505.82 193.099 1493.43 205.724 1484.16 221.792C1475.15 237.86 1470.64 255.968 1470.64 276.117C1470.64 296.266 1474.77 314.374 1483.03 330.443C1491.55 346.256 1503.07 358.88 1517.59 368.317ZM1608.5 338.477C1598.48 344.598 1587.09 347.658 1574.32 347.658C1561.79 347.658 1550.4 344.598 1540.13 338.477C1530.11 332.1 1522.1 323.556 1516.09 312.844C1510.33 301.877 1507.45 289.635 1507.45 276.117C1507.45 262.344 1510.33 250.102 1516.09 239.39C1522.1 228.423 1530.11 219.879 1540.13 213.758C1550.4 207.381 1561.79 204.193 1574.32 204.193C1587.09 204.193 1598.48 207.381 1608.5 213.758C1618.52 219.879 1626.4 228.423 1632.16 239.39C1637.92 250.102 1640.8 262.344 1640.8 276.117C1640.8 289.635 1637.92 301.877 1632.16 312.844C1626.4 323.556 1618.52 332.1 1608.5 338.477Z" fill="#E9E996"/>
<path d="M1721.11 384.002L1733.9 351.322L1824.13 351.379C1830.89 351.379 1836.66 350.002 1841.44 347.249C1846.51 344.221 1850.31 340.366 1852.84 335.686C1855.38 331.006 1856.64 326.05 1856.64 320.819C1856.64 315.864 1855.52 311.321 1853.27 307.192C1851.01 302.787 1847.5 299.346 1842.71 296.868C1838.21 294.115 1832.72 292.738 1826.24 292.738H1782.75C1768.96 292.738 1756.86 290.536 1746.44 286.131C1736.31 281.451 1728.29 274.706 1722.37 265.896C1716.74 257.086 1713.93 246.349 1713.93 233.685C1713.93 222.948 1716.6 213.037 1721.95 203.952C1727.3 194.867 1734.76 187.571 1744.33 182.065C1753.9 176.283 1764.88 173.393 1777.26 173.393H1883.75L1866.44 206.016H1781.06C1772.34 206.016 1765.44 208.632 1760.37 213.863C1755.31 219.094 1752.77 225.288 1752.77 232.446C1752.77 239.329 1755.31 245.385 1760.37 250.616C1765.72 255.572 1773.18 258.049 1782.75 258.049H1824.13C1839.61 258.049 1852.56 260.527 1862.98 265.483C1873.67 270.163 1881.7 277.046 1887.04 286.131C1892.67 295.216 1895.49 306.366 1895.49 319.581C1895.49 330.868 1892.67 341.467 1887.04 351.379C1881.41 361.014 1873.53 368.861 1863.4 374.917C1853.55 380.974 1842.01 384.002 1828.78 384.002H1721.11Z" fill="#E9E996"/>
<path d="M1996.56 384.002C1977.45 384.002 1962.41 378.337 1951.45 367.007C1940.77 355.678 1935.43 340.281 1935.43 320.817L1935.43 129.818H1974.22L1974.22 318.202C1974.22 327.789 1976.75 335.487 1981.81 341.297C1987.15 346.817 1994.46 349.577 2003.73 349.577H2047.16L2029.84 384.002H1996.56ZM1935.43 206.235L1935.43 173.505H2048L2031.66 206.235H1935.43Z" fill="#E9E996"/>
<path d="M522.023 384.002L539.596 353.137H634.503C643.164 353.137 650.589 351.2 656.776 347.327C662.963 343.212 667.789 338.007 671.253 331.713C674.718 325.419 676.45 318.762 676.45 311.741C676.45 304.479 674.718 297.822 671.253 291.77C668.036 285.476 663.334 280.513 657.147 276.882C651.207 273.008 643.907 271.072 635.245 271.072H586.244C571.643 271.072 558.774 268.167 547.637 262.357C536.501 256.305 527.715 248.074 521.28 237.665C515.093 227.013 512 215.03 512 201.716C512 188.159 514.97 175.934 520.909 165.041C527.096 154.147 535.634 145.553 546.523 139.259C557.66 132.965 570.405 129.818 584.759 129.818H700.823L684.847 160.683L588.1 160.683C579.933 160.683 572.756 162.62 566.569 166.493C560.382 170.124 555.68 174.966 552.463 181.018C549.246 186.828 547.637 193.122 547.637 199.9C547.637 206.436 549.122 212.73 552.092 218.782C555.309 224.592 559.887 229.313 565.827 232.944C572.014 236.575 579.067 238.391 586.986 238.391H637.101C652.692 238.391 666.056 241.417 677.193 247.469C688.329 253.521 696.867 261.752 702.807 272.161C708.747 282.571 711.716 294.432 711.716 307.747C711.716 322.514 708.623 335.707 702.436 347.327C696.496 358.705 687.958 367.662 676.822 374.198C665.685 380.734 652.94 384.002 638.586 384.002H522.023Z" fill="#B3D8FF"/>
</g>
<defs>
<clipPath id="clip0_643_4555">
<rect width="2139" height="512" fill="white"/>
</clipPath>
</defs>
</svg>
