<svg width="20" height="21" viewBox="0 0 20 21" fill="none" xmlns="http://www.w3.org/2000/svg">
<path d="M8.57402 1.53104C8.94036 0.0404321 11.0596 0.040436 11.426 1.53104L12.6848 6.65281C12.8152 7.18353 13.2296 7.5979 13.7603 7.72833L18.882 8.9871C20.3727 9.35345 20.3727 11.4727 18.882 11.8391L13.7603 13.0978C13.2296 13.2283 12.8152 13.6426 12.6848 14.1734L11.426 19.2951C11.0596 20.7857 8.94036 20.7857 8.57402 19.2951L7.31525 14.1734C7.18481 13.6426 6.77044 13.2283 6.23973 13.0978L1.11795 11.8391C-0.372654 11.4727 -0.37265 9.35345 1.11796 8.9871L6.23973 7.72833C6.77044 7.5979 7.18481 7.18353 7.31525 6.65281L8.57402 1.53104Z" fill="#B3D8FF"/>
</svg>
