<svg width="30" height="30" viewBox="0 0 30 30" fill="none" xmlns="http://www.w3.org/2000/svg">
<path d="M10.574 3.11795C10.9404 1.62735 13.0596 1.62735 13.426 3.11796L14.6848 8.23973C14.8152 8.77044 15.2296 9.18481 15.7603 9.31525L20.882 10.574C22.3727 10.9404 22.3727 13.0596 20.882 13.426L15.7603 14.6848C15.2296 14.8152 14.8152 15.2296 14.6848 15.7603L13.426 20.882C13.0596 22.3727 10.9404 22.3727 10.574 20.882L9.31525 15.7603C9.18481 15.2296 8.77044 14.8152 8.23973 14.6848L3.11795 13.426C1.62735 13.0596 1.62735 10.9404 3.11796 10.574L8.23973 9.31525C8.77044 9.18481 9.18481 8.77044 9.31525 8.23973L10.574 3.11795Z" fill="white"/>
<path d="M22.287 18.559C22.4702 17.8137 23.5298 17.8137 23.713 18.559L24.3424 21.1199C24.4076 21.3852 24.6148 21.5924 24.8801 21.6576L27.441 22.287C28.1863 22.4702 28.1863 23.5298 27.441 23.713L24.8801 24.3424C24.6148 24.4076 24.4076 24.6148 24.3424 24.8801L23.713 27.441C23.5298 28.1863 22.4702 28.1863 22.287 27.441L21.6576 24.8801C21.5924 24.6148 21.3852 24.4076 21.1199 24.3424L18.559 23.713C17.8137 23.5298 17.8137 22.4702 18.559 22.287L21.1199 21.6576C21.3852 21.5924 21.5924 21.3852 21.6576 21.1199L22.287 18.559Z" fill="white"/>
</svg>
