<svg width="100" height="68" viewBox="0 0 100 68" fill="none" xmlns="http://www.w3.org/2000/svg">
<path d="M8.24764 67.2944C5.79461 68.3105 2.9583 67.1502 2.18241 64.6109C0.258348 58.314 -0.407701 51.6831 0.240763 45.0991C1.04671 36.9162 3.85831 29.0583 8.42652 22.2215C12.9947 15.3847 19.1785 9.78002 26.4302 5.90394C33.6818 2.02786 41.7774 8.82152e-07 50 0C58.2225 -8.82151e-07 66.3182 2.02785 73.5698 5.90393C80.8215 9.78002 87.0053 15.3847 91.5735 22.2215C96.1417 29.0583 98.9533 36.9162 99.7592 45.0991C100.408 51.6831 99.7417 58.314 97.8176 64.6109C97.0417 67.1502 94.2054 68.3105 91.7524 67.2944V67.2944C89.2993 66.2783 88.1646 63.4704 88.8821 60.914C90.235 56.0944 90.6838 51.0512 90.1904 46.0416C89.5394 39.4322 87.2685 33.0854 83.5788 27.5634C79.889 22.0413 74.8944 17.5144 69.0373 14.3837C63.1802 11.253 56.6413 9.61515 50 9.61515C43.3587 9.61515 36.8198 11.253 30.9627 14.3837C25.1056 17.5144 20.1109 22.0413 16.4212 27.5634C12.7315 33.0854 10.4606 39.4322 9.80961 46.0416C9.31621 51.0512 9.76501 56.0944 11.1179 60.914C11.8354 63.4704 10.7007 66.2783 8.24764 67.2944V67.2944Z" fill="#B3D8FF" fill-opacity="0.3"/>
</svg>
