<svg width="16" height="16" viewBox="0 0 16 16" fill="none" xmlns="http://www.w3.org/2000/svg">
<mask id="mask0_790_7810" style="mask-type:alpha" maskUnits="userSpaceOnUse" x="0" y="0" width="16" height="16">
<rect width="16" height="16" fill="#D9D9D9"/>
</mask>
<g mask="url(#mask0_790_7810)">
<path d="M7.96658 11.9987C8.19992 11.9987 8.39714 11.9181 8.55825 11.757C8.71936 11.5959 8.79992 11.3987 8.79992 11.1654C8.79992 10.932 8.71936 10.7348 8.55825 10.5737C8.39714 10.4126 8.19992 10.332 7.96658 10.332C7.73325 10.332 7.53603 10.4126 7.37492 10.5737C7.21381 10.7348 7.13325 10.932 7.13325 11.1654C7.13325 11.3987 7.21381 11.5959 7.37492 11.757C7.53603 11.9181 7.73325 11.9987 7.96658 11.9987ZM7.36659 9.43203H8.59992C8.59992 9.06536 8.64159 8.77648 8.72492 8.56536C8.80825 8.35425 9.04436 8.06536 9.43325 7.6987C9.72214 7.40981 9.94992 7.13481 10.1166 6.8737C10.2833 6.61259 10.3666 6.2987 10.3666 5.93203C10.3666 5.30981 10.1388 4.83203 9.68325 4.4987C9.2277 4.16536 8.68881 3.9987 8.06659 3.9987C7.43325 3.9987 6.91936 4.16536 6.52492 4.4987C6.13047 4.83203 5.85547 5.23203 5.69992 5.6987L6.79992 6.13203C6.85547 5.93203 6.98047 5.71536 7.17492 5.48203C7.36936 5.2487 7.66658 5.13203 8.06659 5.13203C8.42214 5.13203 8.68881 5.22925 8.86658 5.4237C9.04436 5.61814 9.13325 5.83203 9.13325 6.06536C9.13325 6.28759 9.06659 6.49592 8.93325 6.69036C8.79992 6.88481 8.63325 7.06536 8.43325 7.23203C7.94436 7.66536 7.64436 7.99314 7.53325 8.21536C7.42214 8.43759 7.36659 8.84314 7.36659 9.43203ZM7.99992 14.6654C7.0777 14.6654 6.21103 14.4904 5.39992 14.1404C4.58881 13.7904 3.88325 13.3154 3.28325 12.7154C2.68325 12.1154 2.20825 11.4098 1.85825 10.5987C1.50825 9.78759 1.33325 8.92092 1.33325 7.9987C1.33325 7.07648 1.50825 6.20981 1.85825 5.3987C2.20825 4.58759 2.68325 3.88203 3.28325 3.28203C3.88325 2.68203 4.58881 2.20703 5.39992 1.85703C6.21103 1.50703 7.0777 1.33203 7.99992 1.33203C8.92214 1.33203 9.78881 1.50703 10.5999 1.85703C11.411 2.20703 12.1166 2.68203 12.7166 3.28203C13.3166 3.88203 13.7916 4.58759 14.1416 5.3987C14.4916 6.20981 14.6666 7.07648 14.6666 7.9987C14.6666 8.92092 14.4916 9.78759 14.1416 10.5987C13.7916 11.4098 13.3166 12.1154 12.7166 12.7154C12.1166 13.3154 11.411 13.7904 10.5999 14.1404C9.78881 14.4904 8.92214 14.6654 7.99992 14.6654ZM7.99992 13.332C9.48881 13.332 10.7499 12.8154 11.7833 11.782C12.8166 10.7487 13.3333 9.48759 13.3333 7.9987C13.3333 6.50981 12.8166 5.2487 11.7833 4.21536C10.7499 3.18203 9.48881 2.66536 7.99992 2.66536C6.51103 2.66536 5.24992 3.18203 4.21659 4.21536C3.18325 5.2487 2.66659 6.50981 2.66659 7.9987C2.66659 9.48759 3.18325 10.7487 4.21659 11.782C5.24992 12.8154 6.51103 13.332 7.99992 13.332Z" fill="#999999"/>
</g>
</svg>
