<svg width="16" height="16" viewBox="0 0 16 16" fill="none" xmlns="http://www.w3.org/2000/svg">
<path d="M7.99992 14.6663C7.84436 14.6663 7.71103 14.6219 7.59992 14.533C7.48881 14.4441 7.40547 14.3275 7.34992 14.183C7.13881 13.5608 6.87214 12.9775 6.54992 12.433C6.23881 11.8886 5.79992 11.2497 5.23325 10.5163C4.66659 9.78301 4.20547 9.08301 3.84992 8.41634C3.50547 7.74967 3.33325 6.94412 3.33325 5.99967C3.33325 4.69967 3.78325 3.59967 4.68325 2.69967C5.59436 1.78856 6.69992 1.33301 7.99992 1.33301C9.29992 1.33301 10.3999 1.78856 11.2999 2.69967C12.211 3.59967 12.6666 4.69967 12.6666 5.99967C12.6666 7.01078 12.4721 7.85523 12.0833 8.53301C11.7055 9.19967 11.2666 9.86078 10.7666 10.5163C10.1666 11.3163 9.71103 11.983 9.39992 12.5163C9.09992 13.0386 8.84992 13.5941 8.64992 14.183C8.59436 14.3386 8.50547 14.4608 8.38325 14.5497C8.27214 14.6275 8.14436 14.6663 7.99992 14.6663ZM7.99992 12.283C8.18881 11.9052 8.39992 11.533 8.63325 11.1663C8.8777 10.7997 9.23325 10.3108 9.69992 9.69967C10.1777 9.07745 10.5666 8.50523 10.8666 7.98301C11.1777 7.44967 11.3333 6.78856 11.3333 5.99967C11.3333 5.07745 11.0055 4.29412 10.3499 3.64967C9.70548 2.99412 8.92214 2.66634 7.99992 2.66634C7.0777 2.66634 6.28881 2.99412 5.63325 3.64967C4.98881 4.29412 4.66659 5.07745 4.66659 5.99967C4.66659 6.78856 4.81659 7.44967 5.11659 7.98301C5.4277 8.50523 5.82214 9.07745 6.29992 9.69967C6.76659 10.3108 7.11659 10.7997 7.34992 11.1663C7.59436 11.533 7.81103 11.9052 7.99992 12.283ZM7.99992 7.66634C8.46659 7.66634 8.86103 7.50523 9.18325 7.18301C9.50547 6.86079 9.66659 6.46634 9.66659 5.99967C9.66659 5.53301 9.50547 5.13856 9.18325 4.81634C8.86103 4.49412 8.46659 4.33301 7.99992 4.33301C7.53325 4.33301 7.13881 4.49412 6.81659 4.81634C6.49436 5.13856 6.33325 5.53301 6.33325 5.99967C6.33325 6.46634 6.49436 6.86079 6.81659 7.18301C7.13881 7.50523 7.53325 7.66634 7.99992 7.66634Z" fill="#E6E0E9"/>
</svg>
