<svg width="60" height="60" viewBox="0 0 60 60" fill="none" xmlns="http://www.w3.org/2000/svg">
<g clip-path="url(#clip0_1090_8121)">
<rect width="60" height="60" rx="30" fill="url(#paint0_linear_1090_8121)"/>
<path d="M16.8361 41.4568C15.5261 41.8078 14.2402 41.2566 12.1184 33.3378C9.99659 25.4191 10.8084 24.5076 12.1184 24.1566C13.4284 23.8056 14.7404 24.148 16.8622 32.0667C18.984 39.9855 18.1461 41.1058 16.8361 41.4568Z" fill="#FFF5D3"/>
<path d="M23.2066 41.4568C24.5166 41.8078 25.8025 41.2566 27.9243 33.3378C30.0461 25.4191 29.2343 24.5076 27.9243 24.1566C26.6144 23.8056 25.3023 24.148 23.1805 32.0667C21.0587 39.9855 21.8967 41.1058 23.2066 41.4568Z" fill="#FFF5D3"/>
<path fill-rule="evenodd" clip-rule="evenodd" d="M36.5291 51.4403C36.6946 51.3471 36.9042 51.4057 36.9974 51.5712C37.3006 52.1098 37.494 52.7938 37.4171 53.5258C37.3395 54.2641 36.9893 55.0262 36.2476 55.7134C34.7818 57.0714 31.7955 58.1335 26.2948 58.2716C26.105 58.2763 25.9473 58.1263 25.9425 57.9365C25.9377 57.7467 26.0877 57.589 26.2775 57.5842C31.7385 57.4472 34.5064 56.3893 35.7803 55.2091C36.4083 54.6272 36.6743 54.0156 36.7333 53.454C36.793 52.8861 36.6434 52.3439 36.3982 51.9085C36.3051 51.7431 36.3637 51.5334 36.5291 51.4403Z" fill="#919191"/>
<path d="M26.63 57.8989C26.63 58.4713 25.9923 58.7626 25.2057 58.7626C24.4191 58.7626 23.7815 58.4713 23.7815 57.8989C23.7815 57.3265 24.4191 57.0928 25.2057 57.0928C25.9923 57.0928 26.63 57.3265 26.63 57.8989Z" fill="#595959"/>
<path d="M35.863 51.8874C35.863 59.8249 28.8268 62.2673 20.1473 62.2673C11.4678 62.2673 4.43164 59.8249 4.43164 51.8874C4.43164 43.9498 11.4678 37.5151 20.1473 37.5151C28.8268 37.5151 35.863 43.9498 35.863 51.8874Z" fill="#FFF5D3"/>
<g filter="url(#filter0_f_1090_8121)">
<path fill-rule="evenodd" clip-rule="evenodd" d="M36.3985 29.9873C36.2434 29.8746 36.3218 29.6324 36.5129 29.6172C40.8432 29.2728 44.7451 26.4384 46.2021 22.1017C47.6591 17.7651 46.2601 13.1498 43.0162 10.2606C42.873 10.1331 42.9567 9.89276 43.1484 9.89659C44.2747 9.91912 45.418 10.1112 46.544 10.4895C52.4321 12.4677 55.6203 18.7893 53.6651 24.6091C51.7098 30.4289 45.3515 33.5431 39.4633 31.5648C38.3373 31.1865 37.31 30.6494 36.3985 29.9873Z" fill="#FBE1A0"/>
</g>
<path fill-rule="evenodd" clip-rule="evenodd" d="M36.0953 31.1279C35.9402 31.0152 36.0185 30.7731 36.2097 30.7579C40.54 30.4134 44.4419 27.579 45.8989 23.2424C47.3558 18.9057 45.9569 14.2904 42.7129 11.4012C42.5697 11.2737 42.6535 11.0334 42.8452 11.0372C43.9715 11.0597 45.1147 11.2518 46.2408 11.6301C52.1289 13.6084 55.3171 19.9299 53.3618 25.7497C51.4066 31.5695 45.0482 34.6837 39.1601 32.7055C38.0341 32.3271 37.0068 31.79 36.0953 31.1279Z" fill="#FFF6DE"/>
<g filter="url(#filter1_f_1090_8121)">
<path d="M9.84183 6.08859C9.91289 5.75222 10.3399 5.64498 10.5615 5.90788L10.7647 6.14904C10.8496 6.2498 10.9775 6.30398 11.1089 6.29486L11.6217 6.25928C11.9726 6.23494 12.1913 6.63248 11.9828 6.9158L11.7576 7.22199C11.6628 7.35072 11.6509 7.52255 11.727 7.66312L11.9475 8.07063C12.113 8.37652 11.8493 8.73746 11.5075 8.67272L11.0953 8.59462C10.9718 8.57122 10.8443 8.60536 10.7491 8.68739L10.3948 8.99244C10.1377 9.21378 9.73819 9.04781 9.71363 8.70947L9.67617 8.19345C9.66541 8.04524 9.57583 7.91425 9.44161 7.85046L9.09238 7.6845C8.78107 7.53656 8.7774 7.09483 9.0862 6.94173L9.54971 6.71195C9.66289 6.65583 9.74415 6.55099 9.77026 6.42739L9.84183 6.08859Z" fill="#FFB3B3"/>
</g>
<path d="M9.84183 6.08859C9.91289 5.75222 10.3399 5.64498 10.5615 5.90788L10.7647 6.14904C10.8496 6.2498 10.9775 6.30398 11.1089 6.29486L11.6217 6.25928C11.9726 6.23494 12.1913 6.63248 11.9828 6.9158L11.7576 7.22199C11.6628 7.35072 11.6509 7.52255 11.727 7.66312L11.9475 8.07063C12.113 8.37652 11.8493 8.73746 11.5075 8.67272L11.0953 8.59462C10.9718 8.57122 10.8443 8.60536 10.7491 8.68739L10.3948 8.99244C10.1377 9.21378 9.73819 9.04781 9.71363 8.70947L9.67617 8.19345C9.66541 8.04524 9.57583 7.91425 9.44161 7.85046L9.09238 7.6845C8.78107 7.53656 8.7774 7.09483 9.0862 6.94173L9.54971 6.71195C9.66289 6.65583 9.74415 6.55099 9.77026 6.42739L9.84183 6.08859Z" fill="#FFECF6"/>
<path d="M9.84183 6.08859C9.91289 5.75222 10.3399 5.64498 10.5615 5.90788L10.7647 6.14904C10.8496 6.2498 10.9775 6.30398 11.1089 6.29486L11.6217 6.25928C11.9726 6.23494 12.1913 6.63248 11.9828 6.9158L11.7576 7.22199C11.6628 7.35072 11.6509 7.52255 11.727 7.66312L11.9475 8.07063C12.113 8.37652 11.8493 8.73746 11.5075 8.67272L11.0953 8.59462C10.9718 8.57122 10.8443 8.60536 10.7491 8.68739L10.3948 8.99244C10.1377 9.21378 9.73819 9.04781 9.71363 8.70947L9.67617 8.19345C9.66541 8.04524 9.57583 7.91425 9.44161 7.85046L9.09238 7.6845C8.78107 7.53656 8.7774 7.09483 9.0862 6.94173L9.54971 6.71195C9.66289 6.65583 9.74415 6.55099 9.77026 6.42739L9.84183 6.08859Z" fill="#FFECF6"/>
<g filter="url(#filter2_f_1090_8121)">
<path d="M41.2112 4.51318C41.4242 4.24337 41.8544 4.33695 41.9362 4.6709L42.0111 4.97722C42.0425 5.10521 42.133 5.21056 42.2548 5.26077L42.73 5.45665C43.0552 5.59069 43.0746 6.04399 42.762 6.20524L42.4242 6.37952C42.2821 6.45279 42.1951 6.60145 42.2009 6.76117L42.2174 7.22422C42.2298 7.5718 41.8332 7.77804 41.5558 7.56826L41.2211 7.31518C41.1209 7.23936 40.9915 7.21335 40.8698 7.24453L40.4168 7.36048C40.0882 7.44461 39.804 7.11847 39.9322 6.80443L40.1279 6.32546C40.1841 6.18789 40.162 6.03074 40.07 5.91398L39.8309 5.61017C39.6177 5.33936 39.8106 4.94196 40.1552 4.94195L40.6726 4.94193C40.7989 4.94193 40.9183 4.88409 40.9966 4.78494L41.2112 4.51318Z" fill="#FFB3B3"/>
</g>
<path d="M41.2112 4.51318C41.4242 4.24337 41.8544 4.33695 41.9362 4.6709L42.0111 4.97722C42.0425 5.10521 42.133 5.21056 42.2548 5.26077L42.73 5.45665C43.0552 5.59069 43.0746 6.04399 42.762 6.20524L42.4242 6.37952C42.2821 6.45279 42.1951 6.60145 42.2009 6.76117L42.2174 7.22422C42.2298 7.5718 41.8332 7.77804 41.5558 7.56826L41.2211 7.31518C41.1209 7.23936 40.9915 7.21335 40.8698 7.24453L40.4168 7.36048C40.0882 7.44461 39.804 7.11847 39.9322 6.80443L40.1279 6.32546C40.1841 6.18789 40.162 6.03074 40.07 5.91398L39.8309 5.61017C39.6177 5.33936 39.8106 4.94196 40.1552 4.94195L40.6726 4.94193C40.7989 4.94193 40.9183 4.88409 40.9966 4.78494L41.2112 4.51318Z" fill="#FFECF6"/>
<path d="M41.2112 4.51318C41.4242 4.24337 41.8544 4.33695 41.9362 4.6709L42.0111 4.97722C42.0425 5.10521 42.133 5.21056 42.2548 5.26077L42.73 5.45665C43.0552 5.59069 43.0746 6.04399 42.762 6.20524L42.4242 6.37952C42.2821 6.45279 42.1951 6.60145 42.2009 6.76117L42.2174 7.22422C42.2298 7.5718 41.8332 7.77804 41.5558 7.56826L41.2211 7.31518C41.1209 7.23936 40.9915 7.21335 40.8698 7.24453L40.4168 7.36048C40.0882 7.44461 39.804 7.11847 39.9322 6.80443L40.1279 6.32546C40.1841 6.18789 40.162 6.03074 40.07 5.91398L39.8309 5.61017C39.6177 5.33936 39.8106 4.94196 40.1552 4.94195L40.6726 4.94193C40.7989 4.94193 40.9183 4.88409 40.9966 4.78494L41.2112 4.51318Z" fill="white"/>
<path d="M30.6514 15.5894C30.7786 15.27 31.2177 15.2369 31.3913 15.5336L31.4431 15.6222C31.5097 15.736 31.6265 15.8111 31.7576 15.8245L32.0195 15.8512C32.3695 15.8868 32.5174 16.3157 32.2638 16.5595L32.1613 16.658C32.0461 16.7687 32.0052 16.936 32.0562 17.0875L32.1252 17.2922C32.2363 17.6218 31.9151 17.9326 31.5893 17.8107L31.4125 17.7446C31.2948 17.7005 31.1634 17.7125 31.0556 17.7771L30.8525 17.8989C30.5615 18.0733 30.1961 17.8418 30.2294 17.5042L30.2561 17.2331C30.2707 17.0852 30.2047 16.9409 30.0833 16.8552L29.9547 16.7645C29.6731 16.5658 29.7446 16.1299 30.0749 16.0315L30.3375 15.9533C30.4586 15.9173 30.5565 15.8278 30.6032 15.7104L30.6514 15.5894Z" fill="#BDD0FF"/>
<g filter="url(#filter3_f_1090_8121)">
<path d="M53.6773 32.9128C53.765 32.5804 54.1968 32.4945 54.405 32.7681L54.596 33.0191C54.6758 33.1239 54.8008 33.1844 54.9325 33.1819L55.4465 33.1719C55.7981 33.165 55.9967 33.5729 55.7744 33.8455L55.5342 34.1401C55.4332 34.264 55.4128 34.435 55.4817 34.5792L55.6817 34.9972C55.8317 35.3109 55.5504 35.6583 55.2123 35.5766L54.8044 35.4781C54.6822 35.4486 54.5532 35.4763 54.454 35.5535L54.085 35.8405C53.8172 36.0488 53.4265 35.8632 53.4188 35.524L53.407 35.0068C53.4037 34.8582 53.3207 34.7229 53.1898 34.6525L52.8493 34.4694C52.5457 34.3061 52.5641 33.8648 52.8801 33.7272L53.3545 33.5208C53.4703 33.4704 53.5567 33.3697 53.5889 33.2476L53.6773 32.9128Z" fill="#FFB3B3"/>
</g>
<path d="M53.6773 32.9128C53.765 32.5804 54.1968 32.4945 54.405 32.7681L54.596 33.0191C54.6758 33.1239 54.8008 33.1844 54.9325 33.1819L55.4465 33.1719C55.7981 33.165 55.9967 33.5729 55.7744 33.8455L55.5342 34.1401C55.4332 34.264 55.4128 34.435 55.4817 34.5792L55.6817 34.9972C55.8317 35.3109 55.5504 35.6583 55.2123 35.5766L54.8044 35.4781C54.6822 35.4486 54.5532 35.4763 54.454 35.5535L54.085 35.8405C53.8172 36.0488 53.4265 35.8632 53.4188 35.524L53.407 35.0068C53.4037 34.8582 53.3207 34.7229 53.1898 34.6525L52.8493 34.4694C52.5457 34.3061 52.5641 33.8648 52.8801 33.7272L53.3545 33.5208C53.4703 33.4704 53.5567 33.3697 53.5889 33.2476L53.6773 32.9128Z" fill="#FFECF6"/>
<path d="M53.6773 32.9128C53.765 32.5804 54.1968 32.4945 54.405 32.7681L54.596 33.0191C54.6758 33.1239 54.8008 33.1844 54.9325 33.1819L55.4465 33.1719C55.7981 33.165 55.9967 33.5729 55.7744 33.8455L55.5342 34.1401C55.4332 34.264 55.4128 34.435 55.4817 34.5792L55.6817 34.9972C55.8317 35.3109 55.5504 35.6583 55.2123 35.5766L54.8044 35.4781C54.6822 35.4486 54.5532 35.4763 54.454 35.5535L54.085 35.8405C53.8172 36.0488 53.4265 35.8632 53.4188 35.524L53.407 35.0068C53.4037 34.8582 53.3207 34.7229 53.1898 34.6525L52.8493 34.4694C52.5457 34.3061 52.5641 33.8648 52.8801 33.7272L53.3545 33.5208C53.4703 33.4704 53.5567 33.3697 53.5889 33.2476L53.6773 32.9128Z" fill="#BDD0FF"/>
<g filter="url(#filter4_f_1090_8121)">
<path d="M6.49257 10.7378C6.48096 10.3942 6.86985 10.1878 7.14794 10.3899L7.40302 10.5754C7.5096 10.6528 7.64676 10.6748 7.7722 10.6344L8.26151 10.477C8.59635 10.3693 8.9039 10.7029 8.76941 11.0279L8.62406 11.3791C8.56295 11.5268 8.59257 11.6965 8.70009 11.8147L9.01181 12.1575C9.24579 12.4149 9.07622 12.8285 8.72894 12.8475L8.30998 12.8705C8.18446 12.8773 8.06891 12.941 7.99608 13.0435L7.72518 13.4246C7.52863 13.701 7.10101 13.6356 6.99609 13.313L6.83608 12.821C6.79012 12.6797 6.67176 12.574 6.52617 12.5442L6.14735 12.4668C5.80966 12.3977 5.70025 11.9698 5.96338 11.7471L6.35832 11.413C6.45476 11.3314 6.50853 11.2101 6.50427 11.0839L6.49257 10.7378Z" fill="white"/>
</g>
<path d="M6.49257 10.7378C6.48096 10.3942 6.86985 10.1878 7.14794 10.3899L7.40302 10.5754C7.5096 10.6528 7.64676 10.6748 7.7722 10.6344L8.26151 10.477C8.59635 10.3693 8.9039 10.7029 8.76941 11.0279L8.62406 11.3791C8.56295 11.5268 8.59257 11.6965 8.70009 11.8147L9.01181 12.1575C9.24579 12.4149 9.07622 12.8285 8.72894 12.8475L8.30998 12.8705C8.18446 12.8773 8.06891 12.941 7.99608 13.0435L7.72518 13.4246C7.52863 13.701 7.10101 13.6356 6.99609 13.313L6.83608 12.821C6.79012 12.6797 6.67176 12.574 6.52617 12.5442L6.14735 12.4668C5.80966 12.3977 5.70025 11.9698 5.96338 11.7471L6.35832 11.413C6.45476 11.3314 6.50853 11.2101 6.50427 11.0839L6.49257 10.7378Z" fill="white"/>
<path d="M6.49257 10.7378C6.48096 10.3942 6.86985 10.1878 7.14794 10.3899L7.40302 10.5754C7.5096 10.6528 7.64676 10.6748 7.7722 10.6344L8.26151 10.477C8.59635 10.3693 8.9039 10.7029 8.76941 11.0279L8.62406 11.3791C8.56295 11.5268 8.59257 11.6965 8.70009 11.8147L9.01181 12.1575C9.24579 12.4149 9.07622 12.8285 8.72894 12.8475L8.30998 12.8705C8.18446 12.8773 8.06891 12.941 7.99608 13.0435L7.72518 13.4246C7.52863 13.701 7.10101 13.6356 6.99609 13.313L6.83608 12.821C6.79012 12.6797 6.67176 12.574 6.52617 12.5442L6.14735 12.4668C5.80966 12.3977 5.70025 11.9698 5.96338 11.7471L6.35832 11.413C6.45476 11.3314 6.50853 11.2101 6.50427 11.0839L6.49257 10.7378Z" fill="white"/>
<g filter="url(#filter5_f_1090_8121)">
<path d="M50.2429 59.8128C50.4174 60.109 50.1746 60.4762 49.8337 60.4316L49.521 60.3907C49.3903 60.3737 49.2593 60.42 49.1685 60.5154L48.814 60.8876C48.5714 61.1423 48.1418 60.9964 48.1045 60.6466L48.0642 60.2686C48.0473 60.1097 47.9401 59.9748 47.7892 59.9224L47.3515 59.7704C47.0229 59.6562 46.9741 59.2119 47.27 59.0291L47.627 58.8086C47.7339 58.7426 47.805 58.6314 47.82 58.5066L47.8757 58.0424C47.9161 57.7056 48.3229 57.5586 48.5693 57.7917L48.9451 58.1473C49.0531 58.2495 49.2076 58.2857 49.3497 58.2423L49.7194 58.1291C50.049 58.0283 50.3497 58.3519 50.2251 58.6732L50.038 59.1556C49.9923 59.2733 50.0031 59.4055 50.0672 59.5144L50.2429 59.8128Z" fill="#FFB3B3"/>
</g>
<path d="M50.2429 59.8128C50.4174 60.109 50.1746 60.4762 49.8337 60.4316L49.521 60.3907C49.3903 60.3737 49.2593 60.42 49.1685 60.5154L48.814 60.8876C48.5714 61.1423 48.1418 60.9964 48.1045 60.6466L48.0642 60.2686C48.0473 60.1097 47.9401 59.9748 47.7892 59.9224L47.3515 59.7704C47.0229 59.6562 46.9741 59.2119 47.27 59.0291L47.627 58.8086C47.7339 58.7426 47.805 58.6314 47.82 58.5066L47.8757 58.0424C47.9161 57.7056 48.3229 57.5586 48.5693 57.7917L48.9451 58.1473C49.0531 58.2495 49.2076 58.2857 49.3497 58.2423L49.7194 58.1291C50.049 58.0283 50.3497 58.3519 50.2251 58.6732L50.038 59.1556C49.9923 59.2733 50.0031 59.4055 50.0672 59.5144L50.2429 59.8128Z" fill="#FFECF6"/>
<path d="M50.2429 59.8128C50.4174 60.109 50.1746 60.4762 49.8337 60.4316L49.521 60.3907C49.3903 60.3737 49.2593 60.42 49.1685 60.5154L48.814 60.8876C48.5714 61.1423 48.1418 60.9964 48.1045 60.6466L48.0642 60.2686C48.0473 60.1097 47.9401 59.9748 47.7892 59.9224L47.3515 59.7704C47.0229 59.6562 46.9741 59.2119 47.27 59.0291L47.627 58.8086C47.7339 58.7426 47.805 58.6314 47.82 58.5066L47.8757 58.0424C47.9161 57.7056 48.3229 57.5586 48.5693 57.7917L48.9451 58.1473C49.0531 58.2495 49.2076 58.2857 49.3497 58.2423L49.7194 58.1291C50.049 58.0283 50.3497 58.3519 50.2251 58.6732L50.038 59.1556C49.9923 59.2733 50.0031 59.4055 50.0672 59.5144L50.2429 59.8128Z" fill="#FFECF6"/>
<path d="M43.7358 45.9617C43.9876 46.1958 43.8596 46.6171 43.5202 46.6716L43.4188 46.6879C43.2887 46.7088 43.1764 46.7906 43.1165 46.908L42.9969 47.1425C42.8371 47.4559 42.3837 47.4386 42.2482 47.114L42.1934 46.9829C42.1318 46.8354 41.9907 46.7367 41.831 46.7296L41.6152 46.7199C41.2678 46.7042 41.0941 46.2923 41.3256 46.0327L41.4512 45.8918C41.5349 45.7979 41.5712 45.6711 41.55 45.5472L41.5099 45.3138C41.4526 44.9795 41.8005 44.7225 42.1032 44.8757L42.3463 44.9986C42.4789 45.0657 42.6373 45.0564 42.7611 44.9742L42.8922 44.8871C43.1793 44.6964 43.5599 44.9207 43.5321 45.2643L43.51 45.5374C43.4998 45.6633 43.5479 45.787 43.6404 45.873L43.7358 45.9617Z" fill="white"/>
<g filter="url(#filter6_f_1090_8121)">
<path d="M19.2571 61.163C19.5353 61.3651 19.4592 61.7987 19.1288 61.8938L18.8257 61.9811C18.6991 62.0176 18.5975 62.1123 18.5523 62.236L18.3757 62.7188C18.2549 63.0491 17.8028 63.0867 17.629 62.7809L17.4413 62.4504C17.3623 62.3114 17.2103 62.2305 17.0509 62.2426L16.5889 62.2779C16.2421 62.3043 16.02 61.9163 16.2184 61.6307L16.4578 61.2861C16.5295 61.1828 16.5503 61.0525 16.5142 60.9321L16.3801 60.4842C16.2828 60.1593 16.5972 59.8621 16.9161 59.9776L17.4026 60.1538C17.5423 60.2043 17.6985 60.1759 17.8114 60.0794L18.1053 59.8281C18.3673 59.6042 18.7722 59.7809 18.7861 60.1253L18.807 60.6422C18.8121 60.7684 18.8747 60.8854 18.9769 60.9596L19.2571 61.163Z" fill="#FFB3B3"/>
</g>
<g filter="url(#filter7_f_1090_8121)">
<path d="M56.9968 25.1932C57.3214 25.3067 57.3732 25.7439 57.0841 25.93L56.819 26.1008C56.7082 26.1721 56.6381 26.292 56.6304 26.4236L56.6002 26.9367C56.5795 27.2878 56.1572 27.4539 55.9029 27.211L55.628 26.9484C55.5124 26.8381 55.3435 26.8043 55.1944 26.8618L54.762 27.0284C54.4375 27.1535 54.1132 26.8458 54.2211 26.5151L54.3512 26.1162C54.3902 25.9967 54.3726 25.866 54.3034 25.761L54.0461 25.3706C53.8595 25.0874 54.0751 24.7124 54.4138 24.7312L54.9304 24.76C55.0788 24.7683 55.2201 24.6961 55.3005 24.5712L55.5098 24.246C55.6962 23.9562 56.1348 24.0089 56.2472 24.3348L56.4159 24.8238C56.4571 24.9433 56.5507 25.0373 56.67 25.0789L56.9968 25.1932Z" fill="#FFB3B3"/>
</g>
<path d="M56.9968 25.1932C57.3214 25.3067 57.3732 25.7439 57.0841 25.93L56.819 26.1008C56.7082 26.1721 56.6381 26.292 56.6304 26.4236L56.6002 26.9367C56.5795 27.2878 56.1572 27.4539 55.9029 27.211L55.628 26.9484C55.5124 26.8381 55.3435 26.8043 55.1944 26.8618L54.762 27.0284C54.4375 27.1535 54.1132 26.8458 54.2211 26.5151L54.3512 26.1162C54.3902 25.9967 54.3726 25.866 54.3034 25.761L54.0461 25.3706C53.8595 25.0874 54.0751 24.7124 54.4138 24.7312L54.9304 24.76C55.0788 24.7683 55.2201 24.6961 55.3005 24.5712L55.5098 24.246C55.6962 23.9562 56.1348 24.0089 56.2472 24.3348L56.4159 24.8238C56.4571 24.9433 56.5507 25.0373 56.67 25.0789L56.9968 25.1932Z" fill="#FFECF6"/>
<path d="M56.9968 25.1932C57.3214 25.3067 57.3732 25.7439 57.0841 25.93L56.819 26.1008C56.7082 26.1721 56.6381 26.292 56.6304 26.4236L56.6002 26.9367C56.5795 27.2878 56.1572 27.4539 55.9029 27.211L55.628 26.9484C55.5124 26.8381 55.3435 26.8043 55.1944 26.8618L54.762 27.0284C54.4375 27.1535 54.1132 26.8458 54.2211 26.5151L54.3512 26.1162C54.3902 25.9967 54.3726 25.866 54.3034 25.761L54.0461 25.3706C53.8595 25.0874 54.0751 24.7124 54.4138 24.7312L54.9304 24.76C55.0788 24.7683 55.2201 24.6961 55.3005 24.5712L55.5098 24.246C55.6962 23.9562 56.1348 24.0089 56.2472 24.3348L56.4159 24.8238C56.4571 24.9433 56.5507 25.0373 56.67 25.0789L56.9968 25.1932Z" fill="#FFECF6"/>
<g filter="url(#filter8_f_1090_8121)">
<path d="M17.2276 17.906C17.2986 17.5696 17.7257 17.4624 17.9472 17.7253L18.1504 17.9664C18.2353 18.0672 18.3632 18.1214 18.4947 18.1122L19.0075 18.0767C19.3584 18.0523 19.577 18.4499 19.3686 18.7332L19.1433 19.0394C19.0486 19.1681 19.0367 19.3399 19.1127 19.4805L19.3332 19.888C19.4987 20.1939 19.235 20.5548 18.8933 20.4901L18.481 20.412C18.3575 20.3886 18.2301 20.4227 18.1348 20.5048L17.7805 20.8098C17.5234 21.0312 17.1239 20.8652 17.0994 20.5269L17.0619 20.0108C17.0512 19.8626 16.9616 19.7316 16.8274 19.6678L16.4781 19.5019C16.1668 19.3539 16.1631 18.9122 16.4719 18.7591L16.9354 18.5293C17.0486 18.4732 17.1299 18.3684 17.156 18.2448L17.2276 17.906Z" fill="#FFB3B3"/>
</g>
<path d="M17.2276 17.906C17.2986 17.5696 17.7257 17.4624 17.9472 17.7253L18.1504 17.9664C18.2353 18.0672 18.3632 18.1214 18.4947 18.1122L19.0075 18.0767C19.3584 18.0523 19.577 18.4499 19.3686 18.7332L19.1433 19.0394C19.0486 19.1681 19.0367 19.3399 19.1127 19.4805L19.3332 19.888C19.4987 20.1939 19.235 20.5548 18.8933 20.4901L18.481 20.412C18.3575 20.3886 18.2301 20.4227 18.1348 20.5048L17.7805 20.8098C17.5234 21.0312 17.1239 20.8652 17.0994 20.5269L17.0619 20.0108C17.0512 19.8626 16.9616 19.7316 16.8274 19.6678L16.4781 19.5019C16.1668 19.3539 16.1631 18.9122 16.4719 18.7591L16.9354 18.5293C17.0486 18.4732 17.1299 18.3684 17.156 18.2448L17.2276 17.906Z" fill="#FFECF6"/>
<path d="M17.2276 17.906C17.2986 17.5696 17.7257 17.4624 17.9472 17.7253L18.1504 17.9664C18.2353 18.0672 18.3632 18.1214 18.4947 18.1122L19.0075 18.0767C19.3584 18.0523 19.577 18.4499 19.3686 18.7332L19.1433 19.0394C19.0486 19.1681 19.0367 19.3399 19.1127 19.4805L19.3332 19.888C19.4987 20.1939 19.235 20.5548 18.8933 20.4901L18.481 20.412C18.3575 20.3886 18.2301 20.4227 18.1348 20.5048L17.7805 20.8098C17.5234 21.0312 17.1239 20.8652 17.0994 20.5269L17.0619 20.0108C17.0512 19.8626 16.9616 19.7316 16.8274 19.6678L16.4781 19.5019C16.1668 19.3539 16.1631 18.9122 16.4719 18.7591L16.9354 18.5293C17.0486 18.4732 17.1299 18.3684 17.156 18.2448L17.2276 17.906Z" fill="#FFECF6"/>
<path fill-rule="evenodd" clip-rule="evenodd" d="M33.3091 52.1596C33.3091 52.6455 33.6353 53.085 34.1199 53.1206C34.227 53.1285 34.3351 53.1325 34.4441 53.1325C36.8551 53.1325 38.8096 51.1755 38.8096 48.7615C38.8096 46.3476 36.8551 44.3906 34.4441 44.3906C34.3351 44.3906 34.227 44.3946 34.1199 44.4025C33.6353 44.4381 33.3091 44.8775 33.3091 45.3635V52.1596Z" fill="#424242"/>
</g>
<defs>
<filter id="filter0_f_1090_8121" x="32.1877" y="5.76805" width="26.1812" height="30.5205" filterUnits="userSpaceOnUse" color-interpolation-filters="sRGB">
<feFlood flood-opacity="0" result="BackgroundImageFix"/>
<feBlend mode="normal" in="SourceGraphic" in2="BackgroundImageFix" result="shape"/>
<feGaussianBlur stdDeviation="2.06422" result="effect1_foregroundBlur_1090_8121"/>
</filter>
<filter id="filter1_f_1090_8121" x="4.72825" y="1.6323" width="11.4642" height="11.5894" filterUnits="userSpaceOnUse" color-interpolation-filters="sRGB">
<feFlood flood-opacity="0" result="BackgroundImageFix"/>
<feBlend mode="normal" in="SourceGraphic" in2="BackgroundImageFix" result="shape"/>
<feGaussianBlur stdDeviation="2.06422" result="effect1_foregroundBlur_1090_8121"/>
</filter>
<filter id="filter2_f_1090_8121" x="35.6133" y="0.227518" width="11.5008" height="11.5538" filterUnits="userSpaceOnUse" color-interpolation-filters="sRGB">
<feFlood flood-opacity="0" result="BackgroundImageFix"/>
<feBlend mode="normal" in="SourceGraphic" in2="BackgroundImageFix" result="shape"/>
<feGaussianBlur stdDeviation="2.06422" result="effect1_foregroundBlur_1090_8121"/>
</filter>
<filter id="filter3_f_1090_8121" x="48.5036" y="28.4765" width="11.493" height="11.5801" filterUnits="userSpaceOnUse" color-interpolation-filters="sRGB">
<feFlood flood-opacity="0" result="BackgroundImageFix"/>
<feBlend mode="normal" in="SourceGraphic" in2="BackgroundImageFix" result="shape"/>
<feGaussianBlur stdDeviation="2.06422" result="effect1_foregroundBlur_1090_8121"/>
</filter>
<filter id="filter4_f_1090_8121" x="1.68845" y="6.18162" width="11.5599" height="11.545" filterUnits="userSpaceOnUse" color-interpolation-filters="sRGB">
<feFlood flood-opacity="0" result="BackgroundImageFix"/>
<feBlend mode="normal" in="SourceGraphic" in2="BackgroundImageFix" result="shape"/>
<feGaussianBlur stdDeviation="2.06422" result="effect1_foregroundBlur_1090_8121"/>
</filter>
<filter id="filter5_f_1090_8121" x="42.9455" y="53.5498" width="11.4839" height="11.5948" filterUnits="userSpaceOnUse" color-interpolation-filters="sRGB">
<feFlood flood-opacity="0" result="BackgroundImageFix"/>
<feBlend mode="normal" in="SourceGraphic" in2="BackgroundImageFix" result="shape"/>
<feGaussianBlur stdDeviation="2.06422" result="effect1_foregroundBlur_1090_8121"/>
</filter>
<filter id="filter6_f_1090_8121" x="12.0154" y="55.6001" width="11.5406" height="11.5181" filterUnits="userSpaceOnUse" color-interpolation-filters="sRGB">
<feFlood flood-opacity="0" result="BackgroundImageFix"/>
<feBlend mode="normal" in="SourceGraphic" in2="BackgroundImageFix" result="shape"/>
<feGaussianBlur stdDeviation="2.06422" result="effect1_foregroundBlur_1090_8121"/>
</filter>
<filter id="filter7_f_1090_8121" x="49.8489" y="19.9282" width="11.553" height="11.5259" filterUnits="userSpaceOnUse" color-interpolation-filters="sRGB">
<feFlood flood-opacity="0" result="BackgroundImageFix"/>
<feBlend mode="normal" in="SourceGraphic" in2="BackgroundImageFix" result="shape"/>
<feGaussianBlur stdDeviation="2.06422" result="effect1_foregroundBlur_1090_8121"/>
</filter>
<filter id="filter8_f_1090_8121" x="12.114" y="13.4497" width="11.4642" height="11.5894" filterUnits="userSpaceOnUse" color-interpolation-filters="sRGB">
<feFlood flood-opacity="0" result="BackgroundImageFix"/>
<feBlend mode="normal" in="SourceGraphic" in2="BackgroundImageFix" result="shape"/>
<feGaussianBlur stdDeviation="2.06422" result="effect1_foregroundBlur_1090_8121"/>
</filter>
<linearGradient id="paint0_linear_1090_8121" x1="30" y1="0" x2="30" y2="60" gradientUnits="userSpaceOnUse">
<stop stop-color="#181B1F"/>
<stop offset="1" stop-color="#334B6E"/>
</linearGradient>
<clipPath id="clip0_1090_8121">
<rect width="60" height="60" rx="30" fill="white"/>
</clipPath>
</defs>
</svg>
