<svg width="60" height="60" viewBox="0 0 60 60" fill="none" xmlns="http://www.w3.org/2000/svg">
<g clip-path="url(#clip0_779_9316)">
<rect width="60" height="60" rx="30" fill="#000814"/>
<g clip-path="url(#clip1_779_9316)">
<path d="M26.7749 45.7769C27.3249 46.6769 28.6949 47.9369 29.7749 45.7769" stroke="#4F3523" stroke-width="0.6" stroke-linecap="round"/>
<path d="M32.7 45.7769C32.15 46.6769 30.78 47.9369 29.7 45.7769" stroke="#4F3523" stroke-width="0.6" stroke-linecap="round"/>
<rect x="18.45" y="37.6021" width="2.85" height="6.75" rx="1.425" fill="#4F3523"/>
<rect x="38.25" y="37.6021" width="2.85" height="6.75" rx="1.425" fill="#4F3523"/>
<path fill-rule="evenodd" clip-rule="evenodd" d="M50.1001 47.2539C50.1001 47.7967 50.4637 48.2833 51.0023 48.3504C51.2746 48.3843 51.552 48.4018 51.8334 48.4018C55.5153 48.4018 58.5001 45.4133 58.5001 41.7268C58.5001 38.0403 55.5153 35.0518 51.8334 35.0518C51.552 35.0518 51.2746 35.0692 51.0022 35.1031C50.4637 35.1702 50.1001 35.6568 50.1001 36.1996V47.2539Z" fill="#424242"/>
<path fill-rule="evenodd" clip-rule="evenodd" d="M51.5673 45.3196C51.82 45.1773 52.1401 45.2668 52.2824 45.5195C52.7455 46.3421 53.0408 47.3866 52.9234 48.5045C52.8049 49.632 52.2701 50.7958 51.1373 51.8453C48.899 53.9191 44.3385 55.5411 35.9381 55.7519C35.6482 55.7592 35.4073 55.5301 35.4001 55.2402C35.3928 54.9504 35.6219 54.7095 35.9117 54.7022C44.2513 54.493 48.4783 52.8775 50.4237 51.0751C51.3828 50.1865 51.789 49.2524 51.8791 48.3948C51.9702 47.5275 51.7418 46.6995 51.3674 46.0346C51.2252 45.782 51.3147 45.4618 51.5673 45.3196Z" fill="#919191"/>
<path d="M36.4501 55.1832C36.4501 56.0573 35.4763 56.5021 34.2751 56.5021C33.0739 56.5021 32.1001 56.0573 32.1001 55.1832C32.1001 54.309 33.0739 53.9521 34.2751 53.9521C35.4763 53.9521 36.4501 54.309 36.4501 55.1832Z" fill="#595959"/>
<path d="M13.044 44.1654C13.0956 43.9209 13.4059 43.843 13.5669 44.0341L14.5093 45.1523C14.571 45.2255 14.6639 45.2649 14.7594 45.2582L16.582 45.1318C16.8369 45.1141 16.9958 45.403 16.8444 45.6089L15.8629 46.9428C15.7941 47.0364 15.7854 47.1612 15.8407 47.2634L16.6832 48.8205C16.8035 49.0428 16.6119 49.3051 16.3636 49.258L14.7495 48.9522C14.6598 48.9352 14.5672 48.96 14.498 49.0196L13.2267 50.1142C13.0399 50.275 12.7496 50.1544 12.7317 49.9086L12.6017 48.1173C12.5939 48.0096 12.5288 47.9144 12.4312 47.8681L10.9767 47.1769C10.7505 47.0694 10.7479 46.7484 10.9723 46.6371L12.5729 45.8436C12.6551 45.8028 12.7142 45.7267 12.7332 45.6368L13.044 44.1654Z" fill="#FFE6F3"/>
<path fill-rule="evenodd" clip-rule="evenodd" d="M42.8214 49.8194C42.6988 49.7533 42.7415 49.5733 42.8776 49.5438C44.0524 49.289 45.0434 48.4105 45.373 47.1804C45.7026 45.9503 45.2836 44.694 44.3936 43.886C44.2905 43.7923 44.3435 43.6151 44.4828 43.6192C44.7398 43.6268 45.0002 43.6641 45.2596 43.7336C47.0407 44.2108 48.1022 46.0248 47.6305 47.7853C47.1588 49.5457 45.3325 50.586 43.5514 50.1087C43.292 50.0392 43.0478 49.9413 42.8214 49.8194Z" fill="#FFF6DE"/>
<path d="M24.9432 30.5717C22.9427 31.1077 20.9789 30.2659 17.7386 18.1729C14.4983 6.07987 15.7381 4.68784 17.7386 4.15181C19.7391 3.61578 21.7427 4.13873 24.9831 16.2317C28.2234 28.3248 26.9436 30.0357 24.9432 30.5717Z" fill="#202E40"/>
<path d="M23.9532 27.0832C24.8654 26.8388 25.3515 25.6947 22.9501 16.7326C20.5487 7.7705 19.5139 6.8667 18.6017 7.11113C17.6895 7.35556 17.2452 8.65566 19.6466 17.6178C22.048 26.5799 23.041 27.3276 23.9532 27.0832Z" fill="#B2D8FF" fill-opacity="0.24"/>
<path d="M34.6723 30.5717C36.6728 31.1077 38.6366 30.2659 41.8769 18.1729C45.1172 6.07987 43.8774 4.68784 41.8769 4.15181C39.8764 3.61578 37.8727 4.13873 34.6324 16.2317C31.3921 28.3248 32.6718 30.0357 34.6723 30.5717Z" fill="#202E40"/>
<path d="M35.6069 27.0832C34.6947 26.8388 34.2086 25.6947 36.61 16.7326C39.0114 7.7705 40.0462 6.8667 40.9584 7.11113C41.8706 7.35556 42.3148 8.65566 39.9135 17.6178C37.5121 26.5799 36.5191 27.3276 35.6069 27.0832Z" fill="#B2D8FF" fill-opacity="0.24"/>
<path d="M54 46.5001C54 58.6219 43.2548 62.3518 30 62.3518C16.7452 62.3518 6 58.6219 6 46.5001C6 34.3784 16.7452 24.5518 30 24.5518C43.2548 24.5518 54 34.3784 54 46.5001Z" fill="#29394F"/>
<path fill-rule="evenodd" clip-rule="evenodd" d="M47.8218 58.4584C51.662 55.9829 54 52.1545 54 46.5001C54 34.3784 43.2548 24.5518 30 24.5518C16.7452 24.5518 6 34.3784 6 46.5001C6 52.0025 8.21402 55.7758 11.8718 58.2559C15.0037 53.943 21.8425 50.952 29.775 50.952C37.831 50.952 44.7591 54.037 47.8218 58.4584Z" fill="#202E40"/>
<path d="M26.7749 45.7769C27.3249 46.6769 28.6949 47.9369 29.7749 45.7769" stroke="#B3D8FF" stroke-opacity="0.5" stroke-width="0.75" stroke-linecap="round"/>
<path d="M32.7 45.7769C32.15 46.6769 30.78 47.9369 29.7 45.7769" stroke="#B3D8FF" stroke-opacity="0.5" stroke-width="0.75" stroke-linecap="round"/>
<rect x="18.45" y="37.6021" width="2.85" height="6.75" rx="1.425" fill="#B3D8FF" fill-opacity="0.5"/>
<rect x="38.25" y="37.6021" width="2.85" height="6.75" rx="1.425" fill="#B3D8FF" fill-opacity="0.5"/>
<path fill-rule="evenodd" clip-rule="evenodd" d="M50.1001 47.2539C50.1001 47.7967 50.4637 48.2833 51.0023 48.3504C51.2746 48.3843 51.552 48.4018 51.8334 48.4018C55.5153 48.4018 58.5001 45.4133 58.5001 41.7268C58.5001 38.0403 55.5153 35.0518 51.8334 35.0518C51.552 35.0518 51.2746 35.0692 51.0022 35.1031C50.4637 35.1702 50.1001 35.6568 50.1001 36.1996V47.2539Z" fill="#5C6F84"/>
<path fill-rule="evenodd" clip-rule="evenodd" d="M51.5673 45.3196C51.82 45.1773 52.1401 45.2668 52.2824 45.5195C52.7455 46.3421 53.0408 47.3866 52.9234 48.5045C52.8049 49.632 52.2701 50.7958 51.1373 51.8453C48.899 53.9191 44.3385 55.5411 35.9381 55.7519C35.6482 55.7592 35.4073 55.5301 35.4001 55.2402C35.3928 54.9504 35.6219 54.7095 35.9117 54.7022C44.2513 54.493 48.4783 52.8775 50.4237 51.0751C51.3828 50.1865 51.789 49.2524 51.8791 48.3948C51.9702 47.5275 51.7418 46.6995 51.3674 46.0346C51.2252 45.782 51.3147 45.4618 51.5673 45.3196Z" fill="#43576E"/>
<path d="M36.4501 55.1832C36.4501 56.0573 35.4763 56.5021 34.2751 56.5021C33.0739 56.5021 32.1001 56.0573 32.1001 55.1832C32.1001 54.309 33.0739 53.9521 34.2751 53.9521C35.4763 53.9521 36.4501 54.309 36.4501 55.1832Z" fill="#6983A0"/>
<g filter="url(#filter0_f_779_9316)">
<path d="M13.044 44.1654C13.0956 43.9209 13.4059 43.843 13.5669 44.0341L14.5093 45.1523C14.571 45.2255 14.6639 45.2649 14.7594 45.2582L16.582 45.1318C16.8369 45.1141 16.9958 45.403 16.8444 45.6089L15.8629 46.9428C15.7941 47.0364 15.7854 47.1612 15.8407 47.2634L16.6832 48.8205C16.8035 49.0428 16.6119 49.3051 16.3636 49.258L14.7495 48.9522C14.6598 48.9352 14.5672 48.96 14.498 49.0196L13.2267 50.1142C13.0399 50.275 12.7496 50.1544 12.7317 49.9086L12.6017 48.1173C12.5939 48.0096 12.5288 47.9144 12.4312 47.8681L10.9767 47.1769C10.7505 47.0694 10.7479 46.7484 10.9723 46.6371L12.5729 45.8436C12.6551 45.8028 12.7142 45.7267 12.7332 45.6368L13.044 44.1654Z" fill="#B2D8FF" fill-opacity="0.3"/>
</g>
<path d="M13.044 44.1654C13.0956 43.9209 13.4059 43.843 13.5669 44.0341L14.5093 45.1523C14.571 45.2255 14.6639 45.2649 14.7594 45.2582L16.582 45.1318C16.8369 45.1141 16.9958 45.403 16.8444 45.6089L15.8629 46.9428C15.7941 47.0364 15.7854 47.1612 15.8407 47.2634L16.6832 48.8205C16.8035 49.0428 16.6119 49.3051 16.3636 49.258L14.7495 48.9522C14.6598 48.9352 14.5672 48.96 14.498 49.0196L13.2267 50.1142C13.0399 50.275 12.7496 50.1544 12.7317 49.9086L12.6017 48.1173C12.5939 48.0096 12.5288 47.9144 12.4312 47.8681L10.9767 47.1769C10.7505 47.0694 10.7479 46.7484 10.9723 46.6371L12.5729 45.8436C12.6551 45.8028 12.7142 45.7267 12.7332 45.6368L13.044 44.1654Z" fill="#B3D8FF" fill-opacity="0.3"/>
<g filter="url(#filter1_f_779_9316)">
<path fill-rule="evenodd" clip-rule="evenodd" d="M42.8214 49.8194C42.6988 49.7533 42.7415 49.5733 42.8776 49.5438C44.0524 49.289 45.0434 48.4105 45.373 47.1804C45.7026 45.9503 45.2836 44.694 44.3936 43.886C44.2905 43.7923 44.3435 43.6151 44.4828 43.6192C44.7398 43.6268 45.0002 43.6641 45.2596 43.7336C47.0407 44.2108 48.1022 46.0248 47.6305 47.7853C47.1588 49.5457 45.3325 50.586 43.5514 50.1087C43.292 50.0392 43.0478 49.9413 42.8214 49.8194Z" fill="#B3D8FF" fill-opacity="0.4"/>
</g>
<path fill-rule="evenodd" clip-rule="evenodd" d="M42.8214 49.8194C42.6988 49.7533 42.7415 49.5733 42.8776 49.5438C44.0524 49.289 45.0434 48.4105 45.373 47.1804C45.7026 45.9503 45.2836 44.694 44.3936 43.886C44.2905 43.7923 44.3435 43.6151 44.4828 43.6192C44.7398 43.6268 45.0002 43.6641 45.2596 43.7336C47.0407 44.2108 48.1022 46.0248 47.6305 47.7853C47.1588 49.5457 45.3325 50.586 43.5514 50.1087C43.292 50.0392 43.0478 49.9413 42.8214 49.8194Z" fill="#B3D8FF" fill-opacity="0.2"/>
</g>
</g>
<defs>
<filter id="filter0_f_779_9316" x="7.80542" y="40.9272" width="12.0979" height="12.2603" filterUnits="userSpaceOnUse" color-interpolation-filters="sRGB">
<feFlood flood-opacity="0" result="BackgroundImageFix"/>
<feBlend mode="normal" in="SourceGraphic" in2="BackgroundImageFix" result="shape"/>
<feGaussianBlur stdDeviation="1.5" result="effect1_foregroundBlur_779_9316"/>
</filter>
<filter id="filter1_f_779_9316" x="39.749" y="40.6191" width="10.9934" height="12.6055" filterUnits="userSpaceOnUse" color-interpolation-filters="sRGB">
<feFlood flood-opacity="0" result="BackgroundImageFix"/>
<feBlend mode="normal" in="SourceGraphic" in2="BackgroundImageFix" result="shape"/>
<feGaussianBlur stdDeviation="1.5" result="effect1_foregroundBlur_779_9316"/>
</filter>
<clipPath id="clip0_779_9316">
<rect width="60" height="60" rx="30" fill="white"/>
</clipPath>
<clipPath id="clip1_779_9316">
<rect width="55.65" height="59.25" fill="white" transform="translate(4.3501 3.1499)"/>
</clipPath>
</defs>
</svg>
