<svg width="60" height="60" viewBox="0 0 60 60" fill="none" xmlns="http://www.w3.org/2000/svg">
<g clip-path="url(#clip0_779_9272)">
<rect width="60" height="60" rx="30" fill="#F26B76"/>
<path d="M22.5567 25.327C19.5877 26.1226 16.6732 24.8731 11.8641 6.92528C7.05496 -11.0226 8.89503 -13.0886 11.8641 -13.8841C14.8331 -14.6797 17.8068 -13.9035 22.6159 4.04433C27.425 21.9922 25.5257 24.5315 22.5567 25.327Z" fill="#FFF5D3"/>
<path d="M21.0875 20.1493C22.4413 19.7865 23.1627 18.0885 19.5987 4.78741C16.0347 -8.5137 14.4989 -9.85507 13.145 -9.4923C11.7911 -9.12953 11.1318 -7.19999 14.6958 6.10112C18.2599 19.4022 19.7336 20.512 21.0875 20.1493Z" fill="#ECB6A5"/>
<path d="M36.996 25.327C39.9651 26.1226 42.8795 24.8731 47.6887 6.92528C52.4978 -11.0226 50.6577 -13.0886 47.6887 -13.8841C44.7196 -14.6797 41.7459 -13.9035 36.9368 4.04433C32.1277 21.9922 34.027 24.5315 36.996 25.327Z" fill="#FFF5D3"/>
<path d="M38.3832 20.1493C37.0294 19.7865 36.308 18.0885 39.872 4.78741C43.436 -8.5137 44.9718 -9.85507 46.3257 -9.4923C47.6796 -9.12953 48.3389 -7.19999 44.7749 6.10112C41.2108 19.4022 39.7371 20.512 38.3832 20.1493Z" fill="#F0BAAA"/>
<path d="M38.3832 20.1493C37.0294 19.7865 36.308 18.0885 39.872 4.78741C43.436 -8.5137 44.9718 -9.85507 46.3257 -9.4923C47.6796 -9.12953 48.3389 -7.19999 44.7749 6.10112C41.2108 19.4022 39.7371 20.512 38.3832 20.1493Z" fill="#ECB6A5"/>
<path d="M65.6814 48.9673C65.6814 66.9578 49.7339 72.4935 30.0618 72.4935C10.3896 72.4935 -5.55786 66.9578 -5.55786 48.9673C-5.55786 30.9768 10.3896 16.3926 30.0618 16.3926C49.7339 16.3926 65.6814 30.9768 65.6814 48.9673Z" fill="#FCF7E6"/>
<path fill-rule="evenodd" clip-rule="evenodd" d="M56.5122 66.7151C62.2115 63.041 65.6814 57.3591 65.6814 48.9673C65.6814 30.9768 49.7339 16.3926 30.0618 16.3926C10.3896 16.3926 -5.55786 30.9768 -5.55786 48.9673C-5.55786 57.1335 -2.27202 62.7335 3.15651 66.4144C7.80469 60.0134 17.9546 55.574 29.7277 55.574C41.6843 55.574 51.9667 60.1528 56.5122 66.7151Z" fill="#FFF5D3"/>
<circle cx="6.57507" cy="50.5651" r="12.1329" fill="url(#paint0_radial_779_9272)"/>
<circle cx="53.5485" cy="50.5651" r="12.1329" fill="url(#paint1_radial_779_9272)"/>
<path d="M25.2751 47.8936C26.0914 49.2293 28.1247 51.0993 29.7276 47.8936" stroke="#4F3523" stroke-width="0.890491" stroke-linecap="round"/>
<path d="M34.0686 47.8936C33.2523 49.2293 31.219 51.0993 29.6162 47.8936" stroke="#4F3523" stroke-width="0.890491" stroke-linecap="round"/>
<rect x="12.9197" y="35.7607" width="4.22983" height="10.018" rx="2.11492" fill="#4F3523"/>
<rect x="42.3057" y="35.7607" width="4.22983" height="10.018" rx="2.11492" fill="#4F3523"/>
<path fill-rule="evenodd" clip-rule="evenodd" d="M59.8933 50.0859C59.8933 50.8915 60.4329 51.6137 61.2322 51.7132C61.6364 51.7636 62.0481 51.7895 62.4658 51.7895C67.9303 51.7895 72.3602 47.3541 72.3602 41.8828C72.3602 36.4115 67.9303 31.9761 62.4658 31.9761C62.0481 31.9761 61.6364 32.002 61.2322 32.0523C60.4329 32.1519 59.8933 32.8741 59.8933 33.6796V50.0859Z" fill="#424242"/>
<path fill-rule="evenodd" clip-rule="evenodd" d="M62.0713 47.2146C62.4463 47.0035 62.9214 47.1363 63.1326 47.5113C63.8199 48.7322 64.2582 50.2824 64.0839 51.9415C63.908 53.6149 63.1144 55.3421 61.4331 56.8998C58.1111 59.9777 51.3426 62.3849 38.8751 62.6977C38.4449 62.7085 38.0875 62.3685 38.0767 61.9383C38.0659 61.5082 38.4059 61.1507 38.8361 61.1399C51.2133 60.8293 57.4868 58.4317 60.374 55.7566C61.7975 54.4378 62.4003 53.0515 62.534 51.7787C62.6693 50.4915 62.3302 49.2627 61.7746 48.2758C61.5635 47.9009 61.6963 47.4257 62.0713 47.2146Z" fill="#919191"/>
<path d="M4.89614 45.502C4.97278 45.1392 5.43331 45.0236 5.67224 45.3071L7.07079 46.9667C7.16237 47.0754 7.30031 47.1338 7.44208 47.124L10.147 46.9363C10.5254 46.9101 10.7613 47.3388 10.5365 47.6444L9.07984 49.6242C8.97769 49.763 8.96485 49.9483 9.04688 50.0999L10.2973 52.4109C10.4758 52.7408 10.1914 53.1301 9.82285 53.0603L7.4274 52.6064C7.2942 52.5812 7.15675 52.618 7.05401 52.7065L5.16722 54.331C4.88997 54.5697 4.45913 54.3907 4.43264 54.0258L4.23964 51.3673C4.22804 51.2075 4.13143 51.0662 3.98668 50.9974L1.82801 49.9716C1.49227 49.812 1.48832 49.3356 1.82136 49.1705L4.19694 47.9928C4.319 47.9323 4.40664 47.8192 4.4348 47.6859L4.89614 45.502Z" fill="#FFE6F3"/>
<path fill-rule="evenodd" clip-rule="evenodd" d="M49.0908 53.8932C48.9087 53.7951 48.9721 53.528 49.1742 53.4842C50.9178 53.106 52.3885 51.8022 52.8777 49.9765C53.3669 48.1509 52.7451 46.2864 51.4242 45.0871C51.2711 44.9481 51.3498 44.6851 51.5565 44.6912C51.9379 44.7024 52.3244 44.7578 52.7094 44.861C55.3528 45.5693 56.9282 48.2615 56.2282 50.8743C55.5281 53.4871 52.8176 55.0309 50.1742 54.3226C49.7891 54.2194 49.4268 54.0742 49.0908 53.8932Z" fill="#FFF6DE"/>
<path d="M22.5567 25.327C19.5877 26.1226 16.6732 24.8731 11.8641 6.92528C7.05496 -11.0226 8.89503 -13.0886 11.8641 -13.8841C14.8331 -14.6797 17.8068 -13.9035 22.6159 4.04433C27.425 21.9922 25.5257 24.5315 22.5567 25.327Z" fill="#FFF5D3"/>
<path d="M21.0875 20.1493C22.4413 19.7865 23.1627 18.0885 19.5987 4.78741C16.0347 -8.5137 14.4989 -9.85507 13.145 -9.4923C11.7911 -9.12953 11.1318 -7.19999 14.6958 6.10112C18.2599 19.4022 19.7336 20.512 21.0875 20.1493Z" fill="#F6CBBF"/>
<path d="M36.996 25.327C39.9651 26.1226 42.8795 24.8731 47.6887 6.92528C52.4978 -11.0226 50.6577 -13.0886 47.6887 -13.8841C44.7196 -14.6797 41.7459 -13.9035 36.9368 4.04433C32.1277 21.9922 34.027 24.5315 36.996 25.327Z" fill="#FFF5D3"/>
<path d="M38.3832 20.1493C37.0294 19.7865 36.308 18.0885 39.872 4.78741C43.436 -8.5137 44.9718 -9.85507 46.3257 -9.4923C47.6796 -9.12953 48.3389 -7.19999 44.7749 6.10112C41.2108 19.4022 39.7371 20.512 38.3832 20.1493Z" fill="#F0BAAA"/>
<path d="M38.3832 20.1493C37.0294 19.7865 36.308 18.0885 39.872 4.78741C43.436 -8.5137 44.9718 -9.85507 46.3257 -9.4923C47.6796 -9.12953 48.3389 -7.19999 44.7749 6.10112C41.2108 19.4022 39.7371 20.512 38.3832 20.1493Z" fill="#F6CBBF"/>
<path d="M65.6814 48.9673C65.6814 66.9578 49.7339 72.4935 30.0618 72.4935C10.3896 72.4935 -5.55786 66.9578 -5.55786 48.9673C-5.55786 30.9768 10.3896 16.3926 30.0618 16.3926C49.7339 16.3926 65.6814 30.9768 65.6814 48.9673Z" fill="#FCF7E6"/>
<path fill-rule="evenodd" clip-rule="evenodd" d="M56.5122 66.7151C62.2115 63.041 65.6814 57.3591 65.6814 48.9673C65.6814 30.9768 49.7339 16.3926 30.0618 16.3926C10.3896 16.3926 -5.55786 30.9768 -5.55786 48.9673C-5.55786 57.1335 -2.27202 62.7335 3.15651 66.4144C7.80469 60.0134 17.9546 55.574 29.7277 55.574C41.6843 55.574 51.9667 60.1528 56.5122 66.7151Z" fill="#FFF5D3"/>
<circle cx="6.57507" cy="50.5651" r="12.1329" fill="url(#paint2_radial_779_9272)"/>
<circle cx="53.5485" cy="50.5651" r="12.1329" fill="url(#paint3_radial_779_9272)"/>
<path d="M25.2756 47.8936C26.0919 49.2293 28.1252 51.0993 29.7281 47.8936" stroke="#4F3523" stroke-width="1.11311" stroke-linecap="round"/>
<path d="M34.0691 47.8936C33.2528 49.2293 31.2195 51.0993 29.6166 47.8936" stroke="#4F3523" stroke-width="1.11311" stroke-linecap="round"/>
<rect x="12.9199" y="35.7607" width="4.22983" height="10.018" rx="2.11492" fill="#4F3523"/>
<rect x="10.9165" y="35.1938" width="4.22983" height="10.018" rx="2.11492" transform="rotate(-60 10.9165 35.1938)" fill="#FFF5D3"/>
<rect x="42.3062" y="35.7607" width="4.22983" height="10.018" rx="2.11492" fill="#4F3523"/>
<rect width="4.22983" height="10.018" rx="2.11492" transform="matrix(-0.5 -0.866025 -0.866025 0.5 48.8672 35.1938)" fill="#FFF5D3"/>
<path fill-rule="evenodd" clip-rule="evenodd" d="M59.8933 50.0859C59.8933 50.8915 60.4329 51.6137 61.2322 51.7132C61.6364 51.7636 62.0481 51.7895 62.4658 51.7895C67.9303 51.7895 72.3602 47.3541 72.3602 41.8828C72.3602 36.4115 67.9303 31.9761 62.4658 31.9761C62.0481 31.9761 61.6364 32.002 61.2322 32.0523C60.4329 32.1519 59.8933 32.8741 59.8933 33.6796V50.0859Z" fill="#424242"/>
<path fill-rule="evenodd" clip-rule="evenodd" d="M62.0713 47.2146C62.4463 47.0035 62.9214 47.1363 63.1326 47.5113C63.8199 48.7322 64.2582 50.2824 64.0839 51.9415C63.908 53.6149 63.1144 55.3421 61.4331 56.8998C58.1111 59.9777 51.3426 62.3849 38.8751 62.6977C38.4449 62.7085 38.0875 62.3685 38.0767 61.9383C38.0659 61.5082 38.4059 61.1507 38.8361 61.1399C51.2133 60.8293 57.4868 58.4317 60.374 55.7566C61.7975 54.4378 62.4003 53.0515 62.534 51.7787C62.6693 50.4915 62.3302 49.2627 61.7746 48.2758C61.5635 47.9009 61.6963 47.4257 62.0713 47.2146Z" fill="#919191"/>
<g filter="url(#filter0_f_779_9272)">
<path d="M4.89614 45.502C4.97278 45.1392 5.43331 45.0236 5.67224 45.3071L7.07079 46.9667C7.16237 47.0754 7.30031 47.1338 7.44208 47.124L10.147 46.9363C10.5254 46.9101 10.7613 47.3388 10.5365 47.6444L9.07984 49.6242C8.97769 49.763 8.96485 49.9483 9.04688 50.0999L10.2973 52.4109C10.4758 52.7408 10.1914 53.1301 9.82285 53.0603L7.4274 52.6064C7.2942 52.5812 7.15675 52.618 7.05401 52.7065L5.16722 54.331C4.88997 54.5697 4.45913 54.3907 4.43264 54.0258L4.23964 51.3673C4.22804 51.2075 4.13143 51.0662 3.98668 50.9974L1.82801 49.9716C1.49227 49.812 1.48832 49.3356 1.82136 49.1705L4.19694 47.9928C4.319 47.9323 4.40664 47.8192 4.4348 47.6859L4.89614 45.502Z" fill="#FFB3DC"/>
</g>
<path d="M4.89614 45.502C4.97278 45.1392 5.43331 45.0236 5.67224 45.3071L7.07079 46.9667C7.16237 47.0754 7.30031 47.1338 7.44208 47.124L10.147 46.9363C10.5254 46.9101 10.7613 47.3388 10.5365 47.6444L9.07984 49.6242C8.97769 49.763 8.96485 49.9483 9.04688 50.0999L10.2973 52.4109C10.4758 52.7408 10.1914 53.1301 9.82285 53.0603L7.4274 52.6064C7.2942 52.5812 7.15675 52.618 7.05401 52.7065L5.16722 54.331C4.88997 54.5697 4.45913 54.3907 4.43264 54.0258L4.23964 51.3673C4.22804 51.2075 4.13143 51.0662 3.98668 50.9974L1.82801 49.9716C1.49227 49.812 1.48832 49.3356 1.82136 49.1705L4.19694 47.9928C4.319 47.9323 4.40664 47.8192 4.4348 47.6859L4.89614 45.502Z" fill="#FFECF6"/>
<g filter="url(#filter1_f_779_9272)">
<path fill-rule="evenodd" clip-rule="evenodd" d="M49.0908 53.8932C48.9087 53.7951 48.9721 53.528 49.1742 53.4842C50.9178 53.106 52.3885 51.8022 52.8777 49.9765C53.3669 48.1509 52.7451 46.2864 51.4242 45.0871C51.2711 44.9481 51.3498 44.6851 51.5565 44.6912C51.9379 44.7024 52.3244 44.7578 52.7094 44.861C55.3528 45.5693 56.9282 48.2615 56.2282 50.8743C55.5281 53.4871 52.8176 55.0309 50.1742 54.3226C49.7891 54.2194 49.4268 54.0742 49.0908 53.8932Z" fill="#FBE1A0"/>
</g>
<path fill-rule="evenodd" clip-rule="evenodd" d="M49.0908 53.8932C48.9087 53.7951 48.9721 53.528 49.1742 53.4842C50.9178 53.106 52.3885 51.8022 52.8777 49.9765C53.3669 48.1509 52.7451 46.2864 51.4242 45.0871C51.2711 44.9481 51.3498 44.6851 51.5565 44.6912C51.9379 44.7024 52.3244 44.7578 52.7094 44.861C55.3528 45.5693 56.9282 48.2615 56.2282 50.8743C55.5281 53.4871 52.8176 55.0309 50.1742 54.3226C49.7891 54.2194 49.4268 54.0742 49.0908 53.8932Z" fill="#FFF6DE"/>
<path d="M33.8462 21.7355C34.461 21.7355 34.971 21.2319 34.8438 20.6304C34.6313 19.6255 34.1318 18.6948 33.3944 17.9575C32.3924 16.9555 31.0334 16.3926 29.6164 16.3926C28.1993 16.3926 26.8403 16.9555 25.8383 17.9575C25.101 18.6948 24.6014 19.6255 24.389 20.6304C24.2618 21.2319 24.7718 21.7355 25.3866 21.7355L29.6164 21.7355H33.8462Z" fill="#DB8289"/>
<path d="M29.4942 10.1511C29.7077 10.021 29.9759 10.021 30.1894 10.1511L37.7886 14.7833C38.2662 15.0745 38.1957 15.7887 37.6704 15.9808L30.0712 18.7602C29.9231 18.8144 29.7605 18.8144 29.6124 18.7602L22.0132 15.9808C21.4879 15.7887 21.4174 15.0745 21.895 14.7833L29.4942 10.1511Z" fill="#9B444B"/>
<circle cx="24.2734" cy="43.33" r="2.89409" stroke="#9B444B" stroke-width="1.33574"/>
<circle cx="34.9594" cy="43.33" r="2.89409" stroke="#9B444B" stroke-width="1.33574"/>
<path d="M27.1675 43.5522H31.9539" stroke="#9B444B" stroke-width="1.33574"/>
</g>
<defs>
<filter id="filter0_f_779_9272" x="-2.87848" y="40.696" width="17.955" height="18.1959" filterUnits="userSpaceOnUse" color-interpolation-filters="sRGB">
<feFlood flood-opacity="0" result="BackgroundImageFix"/>
<feBlend mode="normal" in="SourceGraphic" in2="BackgroundImageFix" result="shape"/>
<feGaussianBlur stdDeviation="2.22623" result="effect1_foregroundBlur_779_9272"/>
</filter>
<filter id="filter1_f_779_9272" x="44.5307" y="40.2385" width="16.316" height="18.7086" filterUnits="userSpaceOnUse" color-interpolation-filters="sRGB">
<feFlood flood-opacity="0" result="BackgroundImageFix"/>
<feBlend mode="normal" in="SourceGraphic" in2="BackgroundImageFix" result="shape"/>
<feGaussianBlur stdDeviation="2.22623" result="effect1_foregroundBlur_779_9272"/>
</filter>
<radialGradient id="paint0_radial_779_9272" cx="0" cy="0" r="1" gradientUnits="userSpaceOnUse" gradientTransform="translate(6.57507 50.5651) rotate(90) scale(12.1329)">
<stop offset="0.564" stop-color="#FFC0AD" stop-opacity="0.6"/>
<stop offset="1" stop-color="#F0BAAA" stop-opacity="0"/>
</radialGradient>
<radialGradient id="paint1_radial_779_9272" cx="0" cy="0" r="1" gradientUnits="userSpaceOnUse" gradientTransform="translate(53.5485 50.5651) rotate(90) scale(12.1329)">
<stop offset="0.564" stop-color="#FFC0AD" stop-opacity="0.6"/>
<stop offset="1" stop-color="#F0BAAA" stop-opacity="0"/>
</radialGradient>
<radialGradient id="paint2_radial_779_9272" cx="0" cy="0" r="1" gradientUnits="userSpaceOnUse" gradientTransform="translate(6.57507 50.5651) rotate(90) scale(12.1329)">
<stop offset="0.564" stop-color="#FFC0AD" stop-opacity="0.6"/>
<stop offset="1" stop-color="#F0BAAA" stop-opacity="0"/>
</radialGradient>
<radialGradient id="paint3_radial_779_9272" cx="0" cy="0" r="1" gradientUnits="userSpaceOnUse" gradientTransform="translate(53.5485 50.5651) rotate(90) scale(12.1329)">
<stop offset="0.564" stop-color="#FFC0AD" stop-opacity="0.6"/>
<stop offset="1" stop-color="#F0BAAA" stop-opacity="0"/>
</radialGradient>
<clipPath id="clip0_779_9272">
<rect width="60" height="60" rx="30" fill="white"/>
</clipPath>
</defs>
</svg>
