<svg width="60" height="60" viewBox="0 0 60 60" fill="none" xmlns="http://www.w3.org/2000/svg">
<g clip-path="url(#clip0_779_9328)">
<rect width="60" height="60" rx="30" fill="#9BC6F3"/>
<path d="M0.913574 16.395L0.913574 31.4164" stroke="#0064CC" stroke-width="1.77885" stroke-linecap="round"/>
<path d="M6.44775 12.0469L6.44775 27.0683" stroke="#0064CC" stroke-width="1.77885" stroke-linecap="round"/>
<path d="M30.5613 1.37354L30.5613 16.3949" stroke="#0064CC" stroke-width="1.77885" stroke-linecap="round"/>
<path d="M24.2361 3.74512L24.2361 18.7665" stroke="#0064CC" stroke-width="1.77885" stroke-linecap="round"/>
<path d="M36.8857 3.74512L36.8857 18.7665" stroke="#0064CC" stroke-width="1.77885" stroke-linecap="round"/>
<path d="M12.7725 8.88379L12.7725 23.9052" stroke="#0064CC" stroke-width="1.77885" stroke-linecap="round"/>
<path d="M55.8604 12.0469L55.8604 27.0683" stroke="#0064CC" stroke-width="1.77885" stroke-linecap="round"/>
<path d="M49.5354 8.88379L49.5354 23.9052" stroke="#0064CC" stroke-width="1.77885" stroke-linecap="round"/>
<path d="M62.778 49.6638C62.778 65.6362 48.6195 70.5509 31.154 70.5509C13.6886 70.5509 -0.469971 65.6362 -0.469971 49.6638C-0.469971 33.6914 13.6886 20.7432 31.154 20.7432C48.6195 20.7432 62.778 33.6914 62.778 49.6638Z" fill="#FCF7E6"/>
<path fill-rule="evenodd" clip-rule="evenodd" d="M54.6378 65.4197C59.6977 62.1577 62.7783 57.1132 62.7783 49.6628C62.7783 33.6904 48.6197 20.7422 31.1543 20.7422C13.6888 20.7422 -0.469727 33.6904 -0.469727 49.6628C-0.469727 56.913 2.44754 61.8849 7.26716 65.1529C11.3939 59.4698 20.4053 55.5284 30.8578 55.5284C41.4732 55.5284 50.6022 59.5935 54.6378 65.4197Z" fill="#FFF5D3"/>
<circle cx="10.302" cy="51.0825" r="10.7719" fill="url(#paint0_radial_779_9328)"/>
<circle cx="52.0061" cy="51.0825" r="10.7719" fill="url(#paint1_radial_779_9328)"/>
<path d="M26.9043 48.7104C27.629 49.8963 29.4342 51.5566 30.8573 48.7104" stroke="#4F3523" stroke-width="0.7906" stroke-linecap="round"/>
<path d="M34.7117 48.7104C33.987 49.8963 32.1818 51.5566 30.7587 48.7104" stroke="#4F3523" stroke-width="0.7906" stroke-linecap="round"/>
<rect x="15.9348" y="37.9385" width="3.75535" height="8.89425" rx="1.87767" fill="#4F3523"/>
<rect x="42.0244" y="37.9385" width="3.75535" height="8.89425" rx="1.87767" fill="#4F3523"/>
<path fill-rule="evenodd" clip-rule="evenodd" d="M57.6389 50.6575C57.6389 51.3727 58.118 52.0139 58.8277 52.1023C59.1865 52.1469 59.552 52.1699 59.9229 52.1699C64.7744 52.1699 68.7073 48.2321 68.7073 43.3745C68.7073 38.5169 64.7744 34.5791 59.9229 34.5791C59.552 34.5791 59.1865 34.6021 58.8277 34.6468C58.118 34.7352 57.6389 35.3764 57.6389 36.0916V50.6575Z" fill="#424242"/>
<path fill-rule="evenodd" clip-rule="evenodd" d="M59.5723 48.1072C59.9052 47.9197 60.3271 48.0377 60.5145 48.3706C61.1248 49.4545 61.5139 50.8308 61.3591 52.3038C61.203 53.7895 60.4984 55.323 59.0057 56.7059C56.0563 59.4385 50.0471 61.5757 38.9782 61.8535C38.5962 61.863 38.2788 61.5612 38.2693 61.1793C38.2597 60.7973 38.5615 60.4799 38.9435 60.4704C49.9323 60.1946 55.5021 58.0659 58.0654 55.691C59.3292 54.5201 59.8644 53.2893 59.9831 52.1592C60.1032 51.0165 59.8022 49.9255 59.3089 49.0494C59.1215 48.7164 59.2394 48.2946 59.5723 48.1072Z" fill="#919191"/>
<path d="M39.6525 61.104C39.6525 62.2558 38.3694 62.842 36.7866 62.842C35.2038 62.842 33.9207 62.2558 33.9207 61.104C33.9207 59.9522 35.2038 59.4819 36.7866 59.4819C38.3694 59.4819 39.6525 59.9522 39.6525 61.104Z" fill="#595959"/>
<path d="M8.81136 46.5875C8.8794 46.2654 9.28827 46.1628 9.5004 46.4145L10.7421 47.8879C10.8234 47.9844 10.9458 48.0363 11.0717 48.0276L13.4732 47.861C13.8092 47.8376 14.0186 48.2183 13.819 48.4896L12.5257 50.2473C12.4351 50.3705 12.4237 50.5351 12.4965 50.6696L13.6067 52.7214C13.7651 53.0143 13.5126 53.3599 13.1854 53.2979L11.0587 52.895C10.9404 52.8726 10.8184 52.9053 10.7272 52.9838L9.05203 54.4261C8.80588 54.638 8.42337 54.4791 8.39985 54.1551L8.2285 51.7949C8.2182 51.653 8.13243 51.5275 8.00391 51.4665L6.0874 50.5557C5.78932 50.414 5.78581 49.9911 6.08149 49.8445L8.19059 48.7989C8.29896 48.7451 8.37677 48.6448 8.40177 48.5264L8.81136 46.5875Z" fill="#FFE6F3"/>
<path fill-rule="evenodd" clip-rule="evenodd" d="M48.0485 54.0362C47.8869 53.9491 47.9432 53.712 48.1226 53.6731C49.6706 53.3373 50.9763 52.1798 51.4107 50.5589C51.845 48.938 51.2929 47.2827 50.1202 46.2179C49.9843 46.0945 50.0541 45.861 50.2376 45.8664C50.5763 45.8764 50.9194 45.9256 51.2612 46.0172C53.6081 46.646 55.0068 49.0363 54.3853 51.3559C53.7637 53.6756 51.3573 55.0463 49.0104 54.4174C48.6685 54.3258 48.3468 54.1969 48.0485 54.0362Z" fill="#FFF6DE"/>
<path d="M24.9702 36.582C22.3343 37.2883 19.7467 36.179 15.4771 20.2445C11.2074 4.30994 12.8411 2.47571 15.4771 1.7694C18.1131 1.06309 20.7532 1.75216 25.0228 17.6867C29.2925 33.6213 27.6062 35.8757 24.9702 36.582Z" fill="#FFF5D3"/>
<path d="M23.6657 31.9853C24.8677 31.6632 25.5081 30.1557 22.3439 18.3467C19.1797 6.53761 17.8162 5.3467 16.6142 5.66878C15.4122 5.99086 14.8268 7.70396 17.991 19.513C21.1553 31.3221 22.4637 32.3074 23.6657 31.9853Z" fill="#F6CBBF"/>
<path d="M11.2316 22.5778C13.8676 23.2841 16.2777 22.837 18.8662 13.1764C21.4548 3.51584 18.8812 2.82566 17.0219 1.67015C14.3859 0.963842 11.909 0.958063 9.32047 10.6186C6.73192 20.2792 8.5956 21.8715 11.2316 22.5778Z" fill="#FFF5D3"/>
<path d="M35.9275 36.582C38.5634 37.2883 41.151 36.179 45.4206 20.2445C49.6903 4.30994 48.0566 2.47571 45.4206 1.7694C42.7847 1.06309 40.1445 1.75216 35.8749 17.6867C31.6052 33.6213 33.2915 35.8757 35.9275 36.582Z" fill="#FFF5D3"/>
<path d="M37.232 31.9853C36.03 31.6632 35.3896 30.1557 38.5538 18.3467C41.718 6.53761 43.0815 5.3467 44.2835 5.66878C45.4855 5.99086 46.0709 7.70396 42.9067 19.513C39.7424 31.3221 38.434 32.3074 37.232 31.9853Z" fill="#F6CBBF"/>
<path d="M49.1178 20.5314C46.4818 21.2377 44.0984 20.8902 41.7626 12.1731C39.4269 3.4559 42.0004 2.76577 43.8758 1.67015C46.5118 0.963842 48.9726 0.898119 51.3084 9.61529C53.6441 18.3325 51.7538 19.8251 49.1178 20.5314Z" fill="#FFF5D3"/>
<path d="M62.778 49.6638C62.778 65.6362 48.6195 70.5509 31.154 70.5509C13.6886 70.5509 -0.469971 65.6362 -0.469971 49.6638C-0.469971 33.6914 13.6886 20.7432 31.154 20.7432C48.6195 20.7432 62.778 33.6914 62.778 49.6638Z" fill="#FCF7E6"/>
<path fill-rule="evenodd" clip-rule="evenodd" d="M54.6378 65.4197C59.6977 62.1577 62.7783 57.1132 62.7783 49.6628C62.7783 33.6904 48.6197 20.7422 31.1543 20.7422C13.6888 20.7422 -0.469727 33.6904 -0.469727 49.6628C-0.469727 56.913 2.44754 61.8849 7.26716 65.1529C11.3939 59.4698 20.4053 55.5284 30.8578 55.5284C41.4732 55.5284 50.6022 59.5935 54.6378 65.4197Z" fill="#FFF5D3"/>
<circle cx="10.302" cy="51.0825" r="10.7719" fill="url(#paint2_radial_779_9328)"/>
<circle cx="52.0061" cy="51.0825" r="10.7719" fill="url(#paint3_radial_779_9328)"/>
<path fill-rule="evenodd" clip-rule="evenodd" d="M57.6389 50.6575C57.6389 51.3727 58.118 52.0139 58.8277 52.1023C59.1865 52.1469 59.552 52.1699 59.9229 52.1699C64.7744 52.1699 68.7073 48.2321 68.7073 43.3745C68.7073 38.5169 64.7744 34.5791 59.9229 34.5791C59.552 34.5791 59.1865 34.6021 58.8277 34.6468C58.118 34.7352 57.6389 35.3764 57.6389 36.0916V50.6575Z" fill="#424242"/>
<path fill-rule="evenodd" clip-rule="evenodd" d="M59.5723 48.1072C59.9052 47.9197 60.3271 48.0377 60.5145 48.3706C61.1248 49.4545 61.5139 50.8308 61.3591 52.3038C61.203 53.7895 60.4984 55.323 59.0057 56.7059C56.0563 59.4385 50.0471 61.5757 38.9782 61.8535C38.5962 61.863 38.2788 61.5612 38.2693 61.1793C38.2597 60.7973 38.5615 60.4799 38.9435 60.4704C49.9323 60.1946 55.5021 58.0659 58.0654 55.691C59.3292 54.5201 59.8644 53.2893 59.9831 52.1592C60.1032 51.0165 59.8022 49.9255 59.3089 49.0494C59.1215 48.7164 59.2394 48.2946 59.5723 48.1072Z" fill="#919191"/>
<path d="M39.6525 61.104C39.6525 62.2558 38.3694 62.842 36.7866 62.842C35.2038 62.842 33.9207 62.2558 33.9207 61.104C33.9207 59.9522 35.2038 59.4819 36.7866 59.4819C38.3694 59.4819 39.6525 59.9522 39.6525 61.104Z" fill="#595959"/>
<g filter="url(#filter0_f_779_9328)">
<path d="M8.81136 46.5875C8.8794 46.2654 9.28827 46.1628 9.5004 46.4145L10.7421 47.8879C10.8234 47.9844 10.9458 48.0363 11.0717 48.0276L13.4732 47.861C13.8092 47.8376 14.0186 48.2183 13.819 48.4896L12.5257 50.2473C12.4351 50.3705 12.4237 50.5351 12.4965 50.6696L13.6067 52.7214C13.7651 53.0143 13.5126 53.3599 13.1854 53.2979L11.0587 52.895C10.9404 52.8726 10.8184 52.9053 10.7272 52.9838L9.05203 54.4261C8.80588 54.638 8.42337 54.4791 8.39985 54.1551L8.2285 51.7949C8.2182 51.653 8.13243 51.5275 8.00391 51.4665L6.0874 50.5557C5.78932 50.414 5.78581 49.9911 6.08149 49.8445L8.19059 48.7989C8.29896 48.7451 8.37677 48.6448 8.40177 48.5264L8.81136 46.5875Z" fill="#FFB3DC"/>
</g>
<path d="M8.81136 46.5875C8.8794 46.2654 9.28827 46.1628 9.5004 46.4145L10.7421 47.8879C10.8234 47.9844 10.9458 48.0363 11.0717 48.0276L13.4732 47.861C13.8092 47.8376 14.0186 48.2183 13.819 48.4896L12.5257 50.2473C12.4351 50.3705 12.4237 50.5351 12.4965 50.6696L13.6067 52.7214C13.7651 53.0143 13.5126 53.3599 13.1854 53.2979L11.0587 52.895C10.9404 52.8726 10.8184 52.9053 10.7272 52.9838L9.05203 54.4261C8.80588 54.638 8.42337 54.4791 8.39985 54.1551L8.2285 51.7949C8.2182 51.653 8.13243 51.5275 8.00391 51.4665L6.0874 50.5557C5.78932 50.414 5.78581 49.9911 6.08149 49.8445L8.19059 48.7989C8.29896 48.7451 8.37677 48.6448 8.40177 48.5264L8.81136 46.5875Z" fill="#FFECF6"/>
<g filter="url(#filter1_f_779_9328)">
<path fill-rule="evenodd" clip-rule="evenodd" d="M48.0485 54.0372C47.8869 53.9501 47.9432 53.713 48.1226 53.674C49.6706 53.3383 50.9763 52.1807 51.4107 50.5599C51.845 48.939 51.2929 47.2837 50.1202 46.2189C49.9843 46.0955 50.0541 45.862 50.2376 45.8674C50.5763 45.8774 50.9194 45.9266 51.2612 46.0182C53.6081 46.647 55.0068 49.0373 54.3853 51.3569C53.7637 53.6766 51.3573 55.0473 49.0104 54.4184C48.6685 54.3268 48.3468 54.1979 48.0485 54.0372Z" fill="#FBE1A0"/>
</g>
<path fill-rule="evenodd" clip-rule="evenodd" d="M48.0485 54.0372C47.8869 53.9501 47.9432 53.713 48.1226 53.674C49.6706 53.3383 50.9763 52.1807 51.4107 50.5599C51.845 48.939 51.2929 47.2837 50.1202 46.2189C49.9843 46.0955 50.0541 45.862 50.2376 45.8674C50.5763 45.8774 50.9194 45.9266 51.2612 46.0182C53.6081 46.647 55.0068 49.0373 54.3853 51.3569C53.7637 53.6766 51.3573 55.0473 49.0104 54.4184C48.6685 54.3268 48.3468 54.1979 48.0485 54.0372Z" fill="#FFF6DE"/>
<path d="M33.1304 52.5644L30.7832 50.6867C30.711 50.6289 30.6085 50.6289 30.5363 50.6867L28.1891 52.5644" stroke="#4F3523" stroke-width="0.98825" stroke-linecap="round"/>
<path fill-rule="evenodd" clip-rule="evenodd" d="M19.6902 40.9066C19.6902 40.561 19.6902 40.3882 19.6024 40.3295C19.5146 40.2708 19.3324 40.3461 18.9679 40.4968C18.6423 40.6314 18.2856 40.7056 17.9114 40.7056C17.4841 40.7056 17.0794 40.6088 16.7181 40.4358C16.319 40.2447 16.1194 40.1492 16.0271 40.2073C15.9348 40.2655 15.9348 40.4581 15.9348 40.8432V44.9553C15.9348 45.9923 16.7755 46.8329 17.8125 46.8329C18.8495 46.8329 19.6902 45.9923 19.6902 44.9553V40.9066Z" fill="#4F3523"/>
<path fill-rule="evenodd" clip-rule="evenodd" d="M45.7805 40.9066C45.7805 40.5609 45.7805 40.388 45.6927 40.3293C45.6049 40.2706 45.4226 40.346 45.0581 40.4968C44.7324 40.6315 44.3755 40.7058 44.0012 40.7058C43.5741 40.7058 43.1695 40.609 42.8083 40.4361C42.4092 40.2452 42.2097 40.1497 42.1174 40.2078C42.0251 40.266 42.0251 40.4585 42.0251 40.8436V44.9554C42.0251 45.9924 42.8658 46.8331 43.9028 46.8331C44.9398 46.8331 45.7805 45.9924 45.7805 44.9554V40.9066Z" fill="#4F3523"/>
<circle cx="18.7021" cy="45.8442" r="0.98825" fill="#AEEEFC"/>
<circle cx="44.7917" cy="45.8442" r="0.98825" fill="#AEEEFC"/>
</g>
<defs>
<filter id="filter0_f_779_9328" x="1.90882" y="42.3204" width="15.9409" height="16.155" filterUnits="userSpaceOnUse" color-interpolation-filters="sRGB">
<feFlood flood-opacity="0" result="BackgroundImageFix"/>
<feBlend mode="normal" in="SourceGraphic" in2="BackgroundImageFix" result="shape"/>
<feGaussianBlur stdDeviation="1.9765" result="effect1_foregroundBlur_779_9328"/>
</filter>
<filter id="filter1_f_779_9328" x="44.0001" y="41.9142" width="14.4858" height="16.6101" filterUnits="userSpaceOnUse" color-interpolation-filters="sRGB">
<feFlood flood-opacity="0" result="BackgroundImageFix"/>
<feBlend mode="normal" in="SourceGraphic" in2="BackgroundImageFix" result="shape"/>
<feGaussianBlur stdDeviation="1.9765" result="effect1_foregroundBlur_779_9328"/>
</filter>
<radialGradient id="paint0_radial_779_9328" cx="0" cy="0" r="1" gradientUnits="userSpaceOnUse" gradientTransform="translate(10.302 51.0825) rotate(90) scale(10.7719)">
<stop offset="0.564" stop-color="#FFC0AD" stop-opacity="0.6"/>
<stop offset="1" stop-color="#F0BAAA" stop-opacity="0"/>
</radialGradient>
<radialGradient id="paint1_radial_779_9328" cx="0" cy="0" r="1" gradientUnits="userSpaceOnUse" gradientTransform="translate(52.0061 51.0825) rotate(90) scale(10.7719)">
<stop offset="0.564" stop-color="#FFC0AD" stop-opacity="0.6"/>
<stop offset="1" stop-color="#F0BAAA" stop-opacity="0"/>
</radialGradient>
<radialGradient id="paint2_radial_779_9328" cx="0" cy="0" r="1" gradientUnits="userSpaceOnUse" gradientTransform="translate(10.302 51.0825) rotate(90) scale(10.7719)">
<stop offset="0.564" stop-color="#FFC0AD" stop-opacity="0.6"/>
<stop offset="1" stop-color="#F0BAAA" stop-opacity="0"/>
</radialGradient>
<radialGradient id="paint3_radial_779_9328" cx="0" cy="0" r="1" gradientUnits="userSpaceOnUse" gradientTransform="translate(52.0061 51.0825) rotate(90) scale(10.7719)">
<stop offset="0.564" stop-color="#FFC0AD" stop-opacity="0.6"/>
<stop offset="1" stop-color="#F0BAAA" stop-opacity="0"/>
</radialGradient>
<clipPath id="clip0_779_9328">
<rect width="60" height="60" rx="30" fill="white"/>
</clipPath>
</defs>
</svg>
